<svg width="50" height="32" viewBox="0 0 50 32" fill="none" xmlns="http://www.w3.org/2000/svg">
<rect width="50" height="32" rx="3" fill="#333333"/>
<path fill-rule="evenodd" clip-rule="evenodd" d="M29.5985 20.5431C27.3751 22.1602 24.1916 23.0192 21.4628 23.0192C17.6224 23.0192 14.1357 21.6043 11.508 19.2293C11.3059 19.0272 11.5081 18.7745 11.7102 18.9261C14.54 20.5937 18.0772 21.5538 21.665 21.5538C24.0905 21.5538 26.8192 21.0485 29.2953 19.9873C29.649 19.8862 29.9522 20.2905 29.5985 20.5431Z" fill="#FF9201"/>
<path fill-rule="evenodd" clip-rule="evenodd" d="M30.5081 19.482C30.2049 19.1283 28.6384 19.3304 27.9309 19.3809C27.7288 19.4315 27.6783 19.2293 27.8804 19.0778C29.1437 18.1682 31.2155 18.4714 31.4682 18.724C31.7208 19.0272 31.4176 21.099 30.2049 22.1097C30.0027 22.2613 29.8512 22.1602 29.9522 21.9581C30.1543 21.3517 30.7607 19.8863 30.5081 19.482Z" fill="#FF9201"/>
<path fill-rule="evenodd" clip-rule="evenodd" d="M27.9814 12.8629V12.0039C27.9814 11.8523 28.0824 11.8018 28.1835 11.8018H32.0239C32.125 11.8018 32.226 11.9028 32.226 12.0039V12.7619C32.226 12.8629 32.125 13.0651 31.9229 13.3177L29.9016 16.198C30.6596 16.198 31.4175 16.2991 32.125 16.6528C32.2766 16.7539 32.3271 16.8549 32.3271 17.0065V17.9161C32.3271 18.0172 32.1755 18.1688 32.0239 18.1182C30.8112 17.5119 29.2447 17.4108 27.9308 18.1182C27.7792 18.1688 27.6782 18.0677 27.6782 17.9161V17.0065C27.6782 16.8549 27.6782 16.6528 27.8298 16.4002L30.1542 13.0651H28.133C28.0824 13.0651 27.9814 12.964 27.9814 12.8629Z" fill="white"/>
<path fill-rule="evenodd" clip-rule="evenodd" d="M13.883 18.2188H12.7208C12.6197 18.2188 12.5186 18.1177 12.5186 18.0167V12.0034C12.5186 11.9023 12.6197 11.8013 12.7208 11.8013H13.8325C13.9335 11.8013 14.0346 11.9023 14.0346 12.0034V12.8119C14.3378 12.0539 14.8431 11.7002 15.6011 11.7002C16.3591 11.7002 16.8138 12.0539 17.117 12.8119C17.4202 12.0539 18.0266 11.7002 18.7341 11.7002C19.2394 11.7002 19.7447 11.9023 20.0984 12.3571C20.4521 12.8624 20.4016 13.6204 20.4016 14.2268V18.0167C20.4016 18.1177 20.3005 18.2188 20.1995 18.2188H19.0372C18.9362 18.2188 18.8351 18.1177 18.8351 18.0167V14.8332C18.8351 14.5805 18.8351 13.9236 18.7846 13.7215C18.6835 13.3172 18.4308 13.2162 18.0771 13.2162C17.7739 13.2162 17.4708 13.4183 17.3697 13.7215C17.2686 14.0247 17.2686 14.53 17.2686 14.8837V18.0672C17.2686 18.1683 17.1676 18.2693 17.0665 18.2693H15.9043C15.8032 18.2693 15.7022 18.1683 15.7022 18.0672V14.8837C15.7022 14.2268 15.8032 13.2162 14.9947 13.2162C14.1356 13.2162 14.1862 14.1763 14.1862 14.8837V18.0672C14.0851 18.1178 13.984 18.2188 13.883 18.2188Z" fill="white"/>
<path fill-rule="evenodd" clip-rule="evenodd" d="M35.6117 11.6504C37.3804 11.6504 38.2899 13.1664 38.2899 15.036C38.2899 16.8552 37.2288 18.3206 35.6117 18.3206C33.8937 18.3206 32.9841 16.8046 32.9841 14.935C32.9335 13.1158 33.8937 11.6504 35.6117 11.6504ZM35.6117 12.9137C34.7527 12.9137 34.7022 14.0759 34.7022 14.8339C34.7022 15.5919 34.7022 17.1584 35.6117 17.1584C36.5213 17.1584 36.5719 15.8951 36.5719 15.1371C36.5719 14.6318 36.5719 14.0254 36.4203 13.5201C36.2687 13.0653 35.9655 12.9137 35.6117 12.9137Z" fill="white"/>
<path fill-rule="evenodd" clip-rule="evenodd" d="M40.5638 18.2195H39.4016C39.3005 18.2195 39.1995 18.1185 39.1995 18.0174V12.0041C39.1995 11.9031 39.3005 11.802 39.4016 11.802H40.5133C40.6143 11.802 40.7154 11.8525 40.7154 11.9536V12.8632C41.0691 12.0547 41.5239 11.6504 42.3324 11.6504C42.8377 11.6504 43.3936 11.8525 43.6968 12.3578C44 12.8632 44 13.6717 44 14.2275V18.0174C44 18.1185 43.8989 18.2195 43.7979 18.2195H42.6356C42.5346 18.2195 42.4335 18.1185 42.4335 18.0174V14.7328C42.4335 14.0759 42.5346 13.1158 41.6755 13.1158C41.3723 13.1158 41.1197 13.3179 41.0186 13.6211C40.867 13.9749 40.8165 14.3791 40.8165 14.7834V18.0174C40.7659 18.1185 40.6649 18.2195 40.5638 18.2195Z" fill="white"/>
<path fill-rule="evenodd" clip-rule="evenodd" d="M24.8989 15.339C24.8989 15.7938 24.8989 16.198 24.6968 16.6023C24.4947 16.956 24.1915 17.1581 23.8883 17.1581C23.4335 17.1581 23.1808 16.8044 23.1808 16.2991C23.1808 15.2884 24.0904 15.1368 24.9495 15.1368V15.339H24.8989ZM26.0612 18.2193C25.9601 18.2698 25.859 18.2698 25.8085 18.2698C25.4042 17.9666 25.3537 17.815 25.1516 17.4613C24.4946 18.1182 24.0399 18.3204 23.2314 18.3204C22.2207 18.3204 21.4627 17.714 21.4627 16.5012C21.4627 15.5411 21.9681 14.8842 22.726 14.581C23.383 14.2778 24.242 14.2273 24.9495 14.1767V14.0251C24.9495 13.722 24.9495 13.4188 24.7979 13.1661C24.6463 12.964 24.3936 12.8629 24.1409 12.8629C23.6861 12.8629 23.2819 13.1156 23.1808 13.5704C23.1808 13.6714 23.0798 13.7725 22.9787 13.7725L21.8165 13.6714C21.7154 13.6714 21.6143 13.5703 21.6649 13.4188C21.9175 12.0544 23.1808 11.5996 24.2925 11.5996C24.8484 11.5996 25.6064 11.7512 26.0612 12.206C26.617 12.7618 26.5665 13.4693 26.5665 14.2273V16.0464C26.5665 16.6023 26.8191 16.8549 27.0212 17.1581C27.0718 17.2592 27.1223 17.4108 27.0212 17.4613C26.7181 17.6634 26.3138 18.0172 26.0612 18.2193Z" fill="white"/>
<path fill-rule="evenodd" clip-rule="evenodd" d="M9.48668 15.339C9.48668 15.7938 9.4867 16.198 9.28457 16.6023C9.08245 16.956 8.77924 17.1581 8.47604 17.1581C8.02126 17.1581 7.76862 16.8044 7.76862 16.2991C7.76862 15.2884 8.67819 15.1368 9.53723 15.1368V15.339H9.48668ZM10.6489 18.2193C10.5479 18.2698 10.4468 18.2698 10.3457 18.2698C9.94148 17.9666 9.89095 17.815 9.68882 17.4613C9.03191 18.1182 8.57713 18.3204 7.76862 18.3204C6.75798 18.3204 6 17.714 6 16.5012C6 15.5411 6.50532 14.8842 7.2633 14.581C7.92021 14.2778 8.77924 14.2273 9.48668 14.1767V14.0251C9.48668 13.722 9.48669 13.4188 9.33509 13.1661C9.1835 12.964 8.93084 12.8629 8.67818 12.8629C8.2234 12.8629 7.81913 13.1156 7.71807 13.5704C7.71807 13.6714 7.61702 13.7725 7.51596 13.7725L6.35371 13.6714C6.25265 13.6714 6.15159 13.5703 6.20212 13.4188C6.45478 12.0544 7.71807 11.5996 8.82977 11.5996C9.38563 11.5996 10.1436 11.7512 10.5984 12.206C11.1542 12.7618 11.1037 13.4693 11.1037 14.2273V16.0464C11.1037 16.6023 11.3564 16.8549 11.5585 17.1581C11.609 17.2592 11.6596 17.4108 11.5585 17.4613C11.3059 17.6634 10.9016 18.0172 10.6489 18.2193Z" fill="white"/>
</svg>
