<svg width="46" height="45" viewBox="0 0 46 45" fill="none" xmlns="http://www.w3.org/2000/svg">
<circle cx="23.2308" cy="22.5" r="22.5" fill="white"/>
<mask id="mask0_801_7469" style="mask-type:luminance" maskUnits="userSpaceOnUse" x="11" y="11" width="25" height="24">
<path d="M35.294 11H11.7308V34.8438H35.294V11Z" fill="white"/>
</mask>
<g mask="url(#mask0_801_7469)">
<path d="M34.6038 33.4006H33.6038L31.7236 29.5955C31.6067 29.3589 31.3677 29.2094 31.1062 29.2094H26.6253L23.4018 19.4741L30.6031 17.0381C31.0154 16.8986 31.2001 16.4114 30.9833 16.0285C29.1261 12.7463 25.3062 11.0315 21.0003 12.2064L20.7749 11.5242C20.654 11.1583 20.263 10.9607 19.9013 11.0831C19.5397 11.2055 19.3446 11.6012 19.4655 11.9671L19.6908 12.6494C15.5573 14.3288 13.5188 18.0205 13.9862 21.7782C14.0408 22.2172 14.4787 22.4923 14.89 22.3534L22.0923 19.9171L25.1692 29.2094H18.4427L12.8707 25.1498C12.5612 24.9243 12.1298 24.9954 11.9071 25.3085C11.6843 25.6215 11.7546 26.0581 12.0639 26.2836L17.4089 30.1777L16.3826 33.4007H12.4213C12.04 33.4007 11.731 33.7135 11.731 34.0993C11.731 34.4851 12.04 34.7978 12.4213 34.7978H34.6038C34.9851 34.7978 35.2942 34.4851 35.2942 34.0993C35.2942 33.7135 34.9851 33.4006 34.6038 33.4006ZM20.7765 13.7333C20.7763 13.7333 20.7766 13.7332 20.7765 13.7333C20.7811 13.7339 21.5965 13.3489 23.0481 14.7762C23.7983 15.5137 24.4611 16.4959 24.8961 17.4955L19.7214 19.246C19.1739 16.8837 19.6367 14.1193 20.7765 13.7333ZM29.3181 15.9997L26.2103 17.051C25.6146 15.6352 24.5879 14.1713 23.4052 13.2385C25.7468 13.1566 27.9104 14.0828 29.3181 15.9997ZM18.3829 14.9372C17.9892 16.4129 18.0454 18.2074 18.4083 19.6902L15.2995 20.7418C15.2854 18.4115 16.4131 16.3318 18.3829 14.9372ZM30.6795 30.6064L32.0602 33.4006H28.0132L27.088 30.6064H30.6795ZM18.7229 30.6064H25.6319L26.5571 33.4006H17.8331L18.7229 30.6064Z" fill="#4475F2"/>
</g>
</svg>
