<svg width="27" height="29" viewBox="0 0 27 29" fill="none" xmlns="http://www.w3.org/2000/svg">
<path d="M25.125 11.9173H1.875M18.6667 1.58398V6.75065M8.33333 1.58398V6.75065M8.075 27.4173H18.925C21.0952 27.4173 22.1803 27.4173 23.0092 26.995C23.7383 26.6235 24.3311 26.0307 24.7026 25.3015C25.125 24.4726 25.125 23.3875 25.125 21.2173V10.3673C25.125 8.19711 25.125 7.11201 24.7026 6.2831C24.3311 5.55398 23.7383 4.96118 23.0092 4.58967C22.1803 4.16732 21.0952 4.16732 18.925 4.16732H8.075C5.9048 4.16732 4.81969 4.16732 3.99079 4.58967C3.26166 4.96118 2.66886 5.55398 2.29735 6.2831C1.875 7.11201 1.875 8.19711 1.875 10.3673V21.2173C1.875 23.3875 1.875 24.4726 2.29735 25.3015C2.66886 26.0307 3.26166 26.6235 3.99079 26.995C4.81969 27.4173 5.9048 27.4173 8.075 27.4173Z" stroke="#9CA1A2" stroke-width="2.5" stroke-linecap="round" stroke-linejoin="round"/>
</svg>
