<svg width="18" height="19" viewBox="0 0 18 19" fill="none" xmlns="http://www.w3.org/2000/svg">
<path d="M17.3084 14.7748C17.3084 15.0748 17.2417 15.3832 17.1 15.6832C16.9584 15.9832 16.775 16.2665 16.5334 16.5332C16.125 16.9832 15.675 17.3082 15.1667 17.5165C14.6667 17.7248 14.125 17.8332 13.5417 17.8332C12.6917 17.8332 11.7834 17.6332 10.825 17.2248C9.86669 16.8165 8.90835 16.2665 7.95835 15.5748C7.00002 14.8748 6.09169 14.0998 5.22502 13.2415C4.36669 12.3748 3.59169 11.4665 2.90002 10.5165C2.21669 9.5665 1.66669 8.6165 1.26669 7.67484C0.866687 6.72484 0.666687 5.8165 0.666687 4.94984C0.666687 4.38317 0.766687 3.8415 0.966687 3.3415C1.16669 2.83317 1.48335 2.3665 1.92502 1.94984C2.45835 1.42484 3.04169 1.1665 3.65835 1.1665C3.89169 1.1665 4.12502 1.2165 4.33335 1.3165C4.55002 1.4165 4.74169 1.5665 4.89169 1.78317L6.82502 4.50817C6.97502 4.7165 7.08335 4.90817 7.15835 5.0915C7.23335 5.2665 7.27502 5.4415 7.27502 5.59984C7.27502 5.79984 7.21669 5.99984 7.10002 6.1915C6.99169 6.38317 6.83335 6.58317 6.63335 6.78317L6.00002 7.4415C5.90835 7.53317 5.86669 7.6415 5.86669 7.77484C5.86669 7.8415 5.87502 7.89984 5.89169 7.9665C5.91669 8.03317 5.94169 8.08317 5.95835 8.13317C6.10835 8.40817 6.36669 8.7665 6.73335 9.19984C7.10835 9.63317 7.50835 10.0748 7.94169 10.5165C8.39169 10.9582 8.82502 11.3665 9.26669 11.7415C9.70002 12.1082 10.0584 12.3582 10.3417 12.5082C10.3834 12.5248 10.4334 12.5498 10.4917 12.5748C10.5584 12.5998 10.625 12.6082 10.7 12.6082C10.8417 12.6082 10.95 12.5582 11.0417 12.4665L11.675 11.8415C11.8834 11.6332 12.0834 11.4748 12.275 11.3748C12.4667 11.2582 12.6584 11.1998 12.8667 11.1998C13.025 11.1998 13.1917 11.2332 13.375 11.3082C13.5584 11.3832 13.75 11.4915 13.9584 11.6332L16.7167 13.5915C16.9334 13.7415 17.0834 13.9165 17.175 14.1248C17.2584 14.3332 17.3084 14.5415 17.3084 14.7748Z" stroke="white" stroke-width="1.2" stroke-miterlimit="10"/>
<path d="M14.4167 6.99967C14.4167 6.49967 14.0251 5.73301 13.4417 5.10801C12.9084 4.53301 12.2001 4.08301 11.5001 4.08301" stroke="white" stroke-width="1.2" stroke-linecap="round" stroke-linejoin="round"/>
<path d="M17.3334 6.99984C17.3334 3.77484 14.7251 1.1665 11.5001 1.1665" stroke="white" stroke-width="1.2" stroke-linecap="round" stroke-linejoin="round"/>
</svg>
