<svg width="60" height="60" viewBox="0 0 60 60" fill="none" xmlns="http://www.w3.org/2000/svg">
<g clip-path="url(#clip0_798_9269)">
<path fill-rule="evenodd" clip-rule="evenodd" d="M28.4153 55.2121C28.758 55.7577 29.358 56.0903 30.0032 56.0903C30.6485 56.0903 31.2485 55.7577 31.5912 55.2121C36.6662 47.1203 52.3603 22.096 55.9625 16.3523C56.402 15.6508 56.3298 14.7439 55.7837 14.1202C53.7181 11.7627 48.7631 6.10461 47.093 4.19766C46.7367 3.79269 46.2225 3.55884 45.6825 3.55884C41.0557 3.55884 18.9507 3.55884 14.3239 3.55884C13.7839 3.55884 13.2697 3.79269 12.9134 4.19766C11.2433 6.10461 6.28831 11.7627 4.22278 14.1202C3.67671 14.7439 3.60447 15.6508 4.04403 16.3523C7.64613 22.096 23.3402 47.1203 28.4153 55.2121Z" fill="white"/>
<path fill-rule="evenodd" clip-rule="evenodd" d="M3.83789 15.1875H56.1915C56.1152 14.9374 55.9865 14.701 55.8063 14.4947C53.7403 12.1373 48.7815 6.47814 47.1108 4.57093C46.7556 4.16448 46.2403 3.93188 45.7001 3.93188C41.0727 3.93188 18.9567 3.93188 14.3294 3.93188C13.7891 3.93188 13.2739 4.16448 12.9187 4.57093C11.2478 6.47814 6.28911 12.1373 4.22308 14.4947C4.04299 14.701 3.91417 14.9374 3.83789 15.1875Z" fill="white"/>
<path fill-rule="evenodd" clip-rule="evenodd" d="M22.5113 15.1875L30.0151 3.93188H14.3297C14.1509 3.93188 13.9746 3.95689 13.8058 4.00692L22.5113 15.1875ZM30.0151 3.93188L37.5189 15.1875L46.2244 4.00692C46.0557 3.95689 45.8793 3.93188 45.7005 3.93188H30.0151Z" fill="white"/>
<path fill-rule="evenodd" clip-rule="evenodd" d="M37.5192 15.1875H22.5117L30.0154 3.93188L37.5192 15.1875Z" fill="white"/>
<path fill-rule="evenodd" clip-rule="evenodd" d="M30.0154 56.4731L22.5117 15.1875H37.5192L30.0154 56.4731Z" fill="white"/>
<path fill-rule="evenodd" clip-rule="evenodd" d="M15.0052 48.9922L16.486 51.2641L18.7578 52.7448L16.486 54.2243L15.0052 56.4961L13.5258 54.2243L11.2539 52.7448L13.5258 51.2641L15.0052 48.9922Z" fill="white"/>
<path fill-rule="evenodd" clip-rule="evenodd" d="M7.50523 33.9922L8.986 36.2641L11.2579 37.7448L8.986 39.2243L7.50523 41.4961L6.02576 39.2243L3.75391 37.7448L6.02576 36.2641L7.50523 33.9922Z" fill="white"/>
<path fill-rule="evenodd" clip-rule="evenodd" d="M51.2542 40.2412L52.735 42.5131L55.0069 43.9938L52.735 45.4733L51.2542 47.7452L49.7748 45.4733L47.5029 43.9938L49.7748 42.5131L51.2542 40.2412Z" fill="white"/>
<path d="M23.1335 48.1448C23.8242 48.1448 24.3841 47.5849 24.3841 46.8942C24.3841 46.2035 23.8242 45.6436 23.1335 45.6436C22.4427 45.6436 21.8828 46.2035 21.8828 46.8942C21.8828 47.5849 22.4427 48.1448 23.1335 48.1448Z" fill="#0066B3"/>
<path fill-rule="evenodd" clip-rule="evenodd" d="M5.33937 16.4385H21.4762L28.5134 53.3807L26.3173 49.8802C25.951 49.2949 25.178 49.1187 24.594 49.485C24.0086 49.8515 23.8324 50.6243 24.1988 51.2084C24.1988 51.2084 26.5525 54.9615 27.3666 56.2596C27.9382 57.1714 28.9386 57.7241 30.0155 57.7241C31.0922 57.7241 32.0927 57.1714 32.6642 56.2596L57.0452 17.3927C57.7793 16.2234 57.658 14.7101 56.7475 13.6709C54.6815 11.3134 49.724 5.65435 48.0532 3.74716C47.4592 3.07056 46.6025 2.68164 45.7008 2.68164H14.3302C13.4284 2.68164 12.5717 3.07056 11.9777 3.74716C10.3069 5.65435 5.34938 11.3134 3.28334 13.6709C2.37288 14.7101 2.25158 16.2234 2.98569 17.3927L20.0629 44.6164C20.4306 45.2016 21.2023 45.3779 21.7876 45.0115C22.3716 44.6451 22.5492 43.8723 22.1827 43.2882L5.33937 16.4385ZM53.656 13.9373L46.4662 5.73191L40.078 13.9373H48.7748C49.4652 13.9373 50.0255 14.4976 50.0255 15.1879C50.0255 15.8782 49.4652 16.4385 48.7748 16.4385H38.5547L31.5174 53.3807L54.6916 16.4385H52.5266C51.8364 16.4385 51.2761 15.8782 51.2761 15.1879C51.2761 14.4976 51.8364 13.9373 52.5266 13.9373H53.656ZM36.0084 16.4385H24.0224L30.0155 47.8992L36.0084 16.4385ZM6.37488 13.9373H19.9529L13.5647 5.73191L6.37488 13.9373ZM24.8491 13.9373H35.1817L30.0155 6.18715L24.8491 13.9373ZM43.7236 5.18288H32.3528L37.598 13.0505L43.7236 5.18288ZM27.678 5.18288H16.3074L22.4329 13.0505L27.678 5.18288Z" fill="#0066B3"/>
<path fill-rule="evenodd" clip-rule="evenodd" d="M16.0527 48.3088C15.8224 47.9547 15.4288 47.7415 15.0049 47.7415C14.5824 47.7415 14.1889 47.9547 13.9572 48.3088L12.6213 50.3595L10.5705 51.6969C10.2164 51.9272 10.0019 52.3208 10.0019 52.7446C10.0019 53.1671 10.2164 53.5606 10.5705 53.7923L12.6213 55.1283L13.9572 57.1791C14.1889 57.5331 14.5824 57.7477 15.0049 57.7477C15.4288 57.7477 15.8224 57.5331 16.0527 57.1791L17.3901 55.1283L19.4407 53.7923C19.7949 53.5606 20.008 53.1671 20.008 52.7446C20.008 52.3208 19.7949 51.9272 19.4407 51.6969L17.3901 50.3595L16.0527 48.3088ZM15.0049 51.2822L15.438 51.947C15.5328 52.0917 15.6579 52.2167 15.8026 52.3115L16.4674 52.7446L15.8026 53.1763C15.6579 53.2711 15.5328 53.3961 15.438 53.5423L15.0049 54.2056L14.5732 53.5423C14.4785 53.3961 14.3535 53.2711 14.2073 53.1763L13.5439 52.7446L14.2073 52.3115C14.3535 52.2167 14.4785 52.0917 14.5732 51.947L15.0049 51.2822Z" fill="#0066B3"/>
<path fill-rule="evenodd" clip-rule="evenodd" d="M8.55269 33.3088C8.32235 32.9547 7.9288 32.7415 7.50496 32.7415C7.08245 32.7415 6.68888 32.9547 6.45722 33.3088L5.12123 35.3595L3.07051 36.6969C2.71644 36.9272 2.50189 37.3208 2.50189 37.7446C2.50189 38.1671 2.71644 38.5606 3.07051 38.7923L5.12123 40.1283L6.45722 42.1791C6.68888 42.5331 7.08245 42.7477 7.50496 42.7477C7.9288 42.7477 8.32235 42.5331 8.55269 42.1791L9.89 40.1283L11.9407 38.7923C12.2949 38.5606 12.508 38.1671 12.508 37.7446C12.508 37.3208 12.2949 36.9272 11.9407 36.6969L9.89 35.3595L8.55269 33.3088ZM7.50496 36.2822L7.938 36.947C8.03278 37.0917 8.15782 37.2167 8.30261 37.3115L8.96731 37.7446L8.30261 38.1763C8.15782 38.2711 8.03278 38.3961 7.938 38.5423L7.50496 39.2056L7.07323 38.5423C6.97846 38.3961 6.85342 38.2711 6.70732 38.1763L6.04392 37.7446L6.70732 37.3115C6.85342 37.2167 6.97846 37.0917 7.07323 36.947L7.50496 36.2822Z" fill="#0066B3"/>
<path fill-rule="evenodd" clip-rule="evenodd" d="M52.3019 39.5586C52.0715 39.2045 51.6779 38.9912 51.254 38.9912C50.8315 38.9912 50.438 39.2045 50.2063 39.5586L48.8703 41.6093L46.8197 42.9465C46.4655 43.1769 46.251 43.5705 46.251 43.9944C46.251 44.4169 46.4655 44.8104 46.8197 45.0421L48.8703 46.3781L50.2063 48.4287C50.438 48.7829 50.8315 48.9974 51.254 48.9974C51.6779 48.9974 52.0715 48.7829 52.3019 48.4287L53.6391 46.3781L55.6898 45.0421C56.0439 44.8104 56.2572 44.4169 56.2572 43.9944C56.2572 43.5705 56.0439 43.1769 55.6898 42.9465L53.6391 41.6093L52.3019 39.5586ZM51.254 42.5319L51.6871 43.1966C51.7819 43.3415 51.9069 43.4665 52.0518 43.5613L52.7165 43.9944L52.0518 44.426C51.9069 44.5208 51.7819 44.6459 51.6871 44.792L51.254 45.4554L50.8224 44.792C50.7276 44.6459 50.6025 44.5208 50.4564 44.426L49.793 43.9944L50.4564 43.5613C50.6025 43.4665 50.7276 43.3415 50.8224 43.1966L51.254 42.5319Z" fill="#0066B3"/>
</g>
<defs>
<clipPath id="clip0_798_9269">
<rect width="60" height="60" fill="white"/>
</clipPath>
</defs>
</svg>
