<svg width="32" height="32" viewBox="0 0 32 32" fill="none" xmlns="http://www.w3.org/2000/svg">
<g clip-path="url(#clip0_1224_10296)">
<path fill-rule="evenodd" clip-rule="evenodd" d="M15.9484 0.484375C18.833 0.517292 21.4389 1.22624 23.7662 2.61121C26.0658 3.96853 27.9786 5.8931 29.3219 8.20087C30.6984 10.5422 31.4031 13.1639 31.4359 16.066C31.3542 20.0369 30.1017 23.4284 27.6786 26.2405C25.2555 29.0526 22.1521 30.7924 18.9394 31.4593V20.3263H21.9767L22.6636 15.9513H18.0644V13.0858C18.0389 12.4918 18.2268 11.9082 18.594 11.4406C18.9619 10.9717 19.6096 10.7253 20.5371 10.7013H23.3144V6.86892C23.2746 6.8561 22.8965 6.8054 22.18 6.71682C21.3676 6.62176 20.5505 6.57098 19.7325 6.56472C17.8812 6.57326 16.417 7.0955 15.34 8.13143C14.2629 9.16707 13.7128 10.6654 13.6894 12.6265V15.9513H10.1894V20.3263H13.6894V31.4593C9.74477 30.7924 6.64132 29.0526 4.2182 26.2405C1.79507 23.4283 0.5427 20.0369 0.460938 16.066C0.49365 13.1638 1.19831 10.542 2.57491 8.20087C3.91821 5.8931 5.83109 3.96853 8.13064 2.61121C10.4579 1.2265 13.0638 0.517558 15.9484 0.484375Z" fill="#0066B3"/>
</g>
<defs>
<clipPath id="clip0_1224_10296">
<rect width="32" height="32" fill="#0066B3"/>
</clipPath>
</defs>
</svg>
