<svg width="24" height="24" viewBox="0 0 24 24" fill="none" xmlns="http://www.w3.org/2000/svg">
<path fill-rule="evenodd" clip-rule="evenodd" d="M15.9375 5.25C15.0055 5.25 14.25 6.00552 14.25 6.9375C14.25 7.86948 15.0055 8.625 15.9375 8.625C16.8695 8.625 17.625 7.86948 17.625 6.9375C17.625 6.00552 16.8695 5.25 15.9375 5.25ZM13.1813 6.375C13.4418 5.09124 14.5768 4.125 15.9375 4.125C17.2982 4.125 18.4332 5.09124 18.6937 6.375H21V7.5H18.6937C18.4332 8.78376 17.2982 9.75 15.9375 9.75C14.5768 9.75 13.4418 8.78376 13.1813 7.5H3V6.375H13.1813ZM8.0625 10.875C7.13052 10.875 6.375 11.6305 6.375 12.5625C6.375 13.4945 7.13052 14.25 8.0625 14.25C8.99448 14.25 9.75 13.4945 9.75 12.5625C9.75 11.6305 8.99448 10.875 8.0625 10.875ZM5.30626 12C5.56685 10.7162 6.70184 9.75 8.0625 9.75C9.42316 9.75 10.5582 10.7162 10.8187 12H21V13.125H10.8187C10.5582 14.4088 9.42316 15.375 8.0625 15.375C6.70184 15.375 5.56685 14.4088 5.30626 13.125H3V12H5.30626ZM15.9375 16.5C15.0055 16.5 14.25 17.2555 14.25 18.1875C14.25 19.1195 15.0055 19.875 15.9375 19.875C16.8695 19.875 17.625 19.1195 17.625 18.1875C17.625 17.2555 16.8695 16.5 15.9375 16.5ZM13.1813 17.625C13.4418 16.3412 14.5768 15.375 15.9375 15.375C17.2982 15.375 18.4332 16.3412 18.6937 17.625H21V18.75H18.6937C18.4332 20.0338 17.2982 21 15.9375 21C14.5768 21 13.4418 20.0338 13.1813 18.75H3V17.625H13.1813Z" fill="white"/>
</svg>
