<svg width="46" height="45" viewBox="0 0 46 45" fill="none" xmlns="http://www.w3.org/2000/svg">
<circle cx="23.2308" cy="22.5" r="22.5" fill="white"/>
<path d="M10.7308 23.5057C10.7924 23.0491 10.8384 22.5895 10.9183 22.1365C11.3665 19.5955 12.5219 17.4705 14.3421 15.7507C15.7764 14.3954 17.4479 13.5311 19.3331 13.1159C20.6069 12.8354 21.8874 12.8873 23.2036 12.9775C23.2036 13.4539 23.2107 13.9231 23.1943 14.3913C23.1923 14.448 23.0702 14.5239 22.9916 14.5499C22.1014 14.8444 21.2574 15.2427 20.5248 15.8577C18.1104 17.8844 17.1019 20.5261 17.753 23.707C18.401 26.8723 20.3216 28.9037 23.2961 29.7204C25.8606 30.4246 28.0623 29.6005 29.9549 27.7203C30.1173 27.559 30.2804 27.3986 30.463 27.2182C30.8093 27.5856 31.15 27.9388 31.4775 28.3051C31.5179 28.3503 31.5154 28.4774 31.4874 28.546C30.31 31.4323 28.3511 33.5236 25.5884 34.6683C21.6969 36.2807 18.0231 35.7513 14.7255 33.0132C12.4773 31.1463 11.1932 28.6472 10.8203 25.642C10.7905 25.402 10.7607 25.162 10.7308 24.922C10.7308 24.4498 10.7308 23.9777 10.7308 23.5057ZM28.5698 30.6272C24.6249 32.6525 19.8977 30.8834 17.6573 27.3345C16.4957 25.4947 15.9781 23.4711 16.1543 21.272C16.3741 18.5293 17.5814 16.3393 19.6409 14.6244C16.191 15.2897 12.742 18.4232 12.2332 23.1252C11.7744 27.366 13.9788 31.5091 17.8567 33.2472C21.7222 34.9798 26.0741 33.6747 28.5698 30.6272Z" fill="#4475F2"/>
<path d="M30.237 20.4451C30.1735 20.3567 30.124 20.2684 30.0575 20.1981C28.8226 18.8913 27.5788 17.5939 26.3515 16.2792C25.4832 15.3491 25.0961 14.2241 25.3434 12.9315C25.7878 10.6084 28.4148 9.67551 30.127 11.2101C30.1693 11.248 30.2127 11.2846 30.2571 11.3232C30.4558 11.1755 30.6393 11.0119 30.8452 10.8907C31.893 10.2739 32.9487 10.2812 33.9459 10.9807C34.9504 11.6855 35.3714 12.7184 35.245 13.9857C35.1528 14.9094 34.7657 15.683 34.1428 16.3363C32.908 17.6312 31.68 18.9333 30.4489 20.2321C30.3929 20.2911 30.3343 20.3474 30.237 20.4451ZM30.2852 18.2395C30.3079 18.2198 30.3339 18.2008 30.3559 18.1775C31.2988 17.1829 32.2441 16.1907 33.1811 15.1899C33.3251 15.0361 33.4528 14.8554 33.5512 14.6658C33.8046 14.1782 33.9138 13.6566 33.7609 13.1082C33.4509 11.9959 32.1449 11.6069 31.3314 12.3955C30.9686 12.7471 30.647 13.146 30.2888 13.5435C29.9094 13.1347 29.5867 12.7599 29.2364 12.4162C28.7734 11.9619 28.2244 11.8475 27.6398 12.108C27.0584 12.3671 26.7446 12.852 26.7232 13.5227C26.7045 14.1116 26.8711 14.6512 27.2622 15.0704C28.2535 16.1326 29.2654 17.1732 30.2852 18.2395Z" fill="#4475F2"/>
<path d="M24.9894 28.0551C24.0534 27.0799 23.0796 26.1159 22.1627 25.095C21.2871 24.12 21.2942 22.6219 22.1119 21.7215C22.8127 20.9497 23.9264 20.797 24.7905 21.3545C24.858 21.398 24.9244 21.4437 25.0006 21.4947C25.5008 21.1093 26.0583 20.9383 26.6709 21.0525C28.1119 21.3211 28.8688 22.854 28.2845 24.3294C28.1815 24.5896 28.0481 24.8593 27.8635 25.0567C26.9156 26.07 25.9465 27.0611 24.9894 28.0551ZM24.9988 23.6709C24.6922 23.3362 24.4339 23.038 24.1583 22.7588C23.9308 22.5283 23.6564 22.4768 23.3634 22.6172C23.0894 22.7486 22.9118 23.0461 22.963 23.3779C22.9977 23.6023 23.0576 23.8667 23.1975 24.0209C23.7857 24.669 24.4083 25.2824 24.9949 25.8844C25.5825 25.2832 26.1932 24.6684 26.7895 24.0384C26.8903 23.9319 26.9482 23.7663 26.9925 23.617C27.1142 23.2066 26.9876 22.8323 26.684 22.6473C26.3742 22.4585 26.0573 22.5188 25.7584 22.8359C25.5117 23.0976 25.2735 23.3681 24.9988 23.6709Z" fill="#4475F2"/>
</svg>
