<svg width="32" height="32" viewBox="0 0 32 32" fill="none" xmlns="http://www.w3.org/2000/svg">
<g clip-path="url(#clip0_1224_10300)">
<path fill-rule="evenodd" clip-rule="evenodd" d="M15.9992 12.5016C18.163 12.5016 19.917 14.2285 19.917 16.3588C19.917 18.4886 18.1629 20.2155 15.9992 20.2155C13.8355 20.2155 12.0814 18.4886 12.0814 16.3588C12.0814 14.2285 13.8355 12.5016 15.9992 12.5016ZM15.9992 10.9592C12.97 10.9592 10.5143 13.3766 10.5143 16.3588C10.5143 19.3405 12.97 21.7583 15.9992 21.7583C19.0284 21.7583 21.4841 19.3405 21.4841 16.3588C21.4841 13.3766 19.0285 10.9592 15.9992 10.9592ZM21.6535 9.66125C21.3494 9.66602 21.0534 9.76055 20.8029 9.93297C20.5524 10.1054 20.3584 10.348 20.2453 10.6304C20.1322 10.9127 20.1051 11.2222 20.1673 11.5199C20.2296 11.8176 20.3784 12.0902 20.5952 12.3036C20.8119 12.517 21.0869 12.6615 21.3855 12.7191C21.6841 12.7767 21.9931 12.7447 22.2737 12.6272C22.5542 12.5098 22.7938 12.312 22.9622 12.0588C23.1307 11.8055 23.2206 11.5082 23.2206 11.204C23.2173 10.7917 23.0504 10.3975 22.7565 10.1081C22.4626 9.81881 22.0659 9.65807 21.6535 9.66125ZM12.1706 7.98218H19.8278C22.3188 7.98218 24.3382 9.97015 24.3382 12.4221V20.295C24.3382 22.7474 22.3188 24.7349 19.8278 24.7349H12.1706C9.67959 24.7349 7.66018 22.7474 7.66018 20.295V12.4221C7.66018 9.97015 9.67956 7.98218 12.1706 7.98218ZM11.4484 6.44665C8.48752 6.44665 6.0872 8.80978 6.0872 11.7244V20.9927C6.0872 23.9078 8.48749 26.2705 11.4484 26.2705H20.55C23.5109 26.2705 25.9112 23.9078 25.9112 20.9927V11.7244C25.9112 8.80975 23.5109 6.44665 20.55 6.44665H11.4484ZM15.9992 0.871094C24.5527 0.871094 31.4867 7.80485 31.4867 16.3588C31.4867 24.9122 24.5527 31.846 15.9992 31.846C7.44568 31.846 0.511719 24.9122 0.511719 16.3588C0.511719 7.80487 7.44568 0.871094 15.9992 0.871094Z" fill="white"/>
</g>
<defs>
<clipPath id="clip0_1224_10300">
<rect width="32" height="32" fill="white"/>
</clipPath>
</defs>
</svg>
