<svg width="46" height="45" viewBox="0 0 46 45" fill="none" xmlns="http://www.w3.org/2000/svg">
<circle cx="23.2308" cy="22.5" r="22.5" fill="white"/>
<path d="M35.2608 33.1643C34.4408 33.1643 34.0708 32.9801 33.6024 32.7469C33.4091 32.6506 33.2064 32.5499 32.9723 32.46L35.482 25.858C35.6773 25.3441 35.6449 24.7692 35.393 24.2806C35.1411 23.792 34.6916 23.4321 34.1598 23.2931L32.4317 22.8416V17.6589C32.4317 16.5713 31.5468 15.6864 30.4592 15.6864H27.0487V13.7687C27.0487 12.242 25.8066 11 24.28 11H22.366C20.8393 11 19.5973 12.242 19.5973 13.7687V15.6863H16.1868C15.0991 15.6863 14.2142 16.5712 14.2142 17.6589V22.8416L12.4862 23.2931C11.9543 23.4321 11.5048 23.792 11.253 24.2806C11.0011 24.7692 10.9686 25.3441 11.164 25.858L13.6736 32.4602C13.4396 32.5499 13.2369 32.6506 13.0437 32.7469C12.5752 32.9801 12.2053 33.1644 11.3851 33.1644C10.9748 33.1644 10.6421 33.4971 10.6421 33.9074C10.6421 34.3177 10.9748 34.6504 11.3851 34.6504C12.5547 34.6504 13.1664 34.3459 13.706 34.0772C14.1745 33.844 14.5444 33.6597 15.3646 33.6597C16.1847 33.6597 16.5547 33.844 17.0232 34.0772C17.5628 34.3459 18.1744 34.6504 19.344 34.6504C20.5136 34.6504 21.1252 34.3459 21.6649 34.0772C22.1333 33.844 22.5033 33.6597 23.3233 33.6597C24.1433 33.6597 24.5132 33.844 24.9817 34.0772C25.5213 34.3459 26.1329 34.6504 27.3025 34.6504C28.472 34.6504 29.0836 34.3459 29.6233 34.0772C30.0917 33.844 30.4617 33.6597 31.2817 33.6597C32.1017 33.6597 32.4716 33.844 32.9401 34.0772C33.4797 34.3459 34.0913 34.6504 35.2609 34.6504C35.6712 34.6504 36.0039 34.3177 36.0039 33.9074C36.0039 33.4971 35.6711 33.1643 35.2608 33.1643ZM21.0833 13.7687C21.0833 13.0614 21.6587 12.486 22.366 12.486H24.28C24.9872 12.486 25.5626 13.0614 25.5626 13.7687V15.6863H21.0833V13.7687ZM15.7002 17.6589C15.7002 17.3907 15.9185 17.1724 16.1867 17.1724H30.4591C30.7274 17.1724 30.9456 17.3907 30.9456 17.6589V22.4534L23.5108 20.5107C23.3876 20.4786 23.2582 20.4786 23.1351 20.5107L15.7002 22.4534L15.7002 17.6589ZM28.9609 32.7469C28.4924 32.9801 28.1225 33.1643 27.3025 33.1643C26.4825 33.1643 26.1125 32.9801 25.6441 32.7469C25.1045 32.4782 24.4929 32.1736 23.3233 32.1736C22.1537 32.1736 21.5421 32.4782 21.0025 32.7469C20.5341 32.9801 20.1641 33.1643 19.344 33.1643C18.5239 33.1643 18.1539 32.9801 17.6856 32.7469C17.1459 32.4782 16.5342 32.1736 15.3646 32.1736C15.2929 32.1736 15.2234 32.1748 15.1558 32.177L12.553 25.3299C12.4905 25.1656 12.5392 25.0286 12.5738 24.9615C12.6084 24.8944 12.6917 24.7754 12.8618 24.7309L23.323 21.9976L33.7841 24.731C33.9542 24.7754 34.0375 24.8944 34.0721 24.9615C34.1067 25.0286 34.1554 25.1656 34.0929 25.33L31.4902 32.1771C31.4227 32.1748 31.3532 32.1737 31.2817 32.1737C30.1121 32.1736 29.5004 32.4782 28.9609 32.7469Z" fill="#4475F2"/>
<path d="M30.1923 25.8002L23.5108 24.0544C23.3877 24.0222 23.2584 24.0222 23.1352 24.0544L16.4537 25.8002C16.0567 25.9039 15.8189 26.3099 15.9227 26.7069C16.0264 27.1039 16.4324 27.3416 16.8294 27.238L23.323 25.5413L29.8166 27.238C29.8796 27.2545 29.9428 27.2623 30.005 27.2623C30.3349 27.2623 30.6362 27.041 30.7233 26.7069C30.8271 26.3099 30.5894 25.9039 30.1923 25.8002Z" fill="#4475F2"/>
</svg>
