<svg width="50" height="32" viewBox="0 0 50 32" fill="none" xmlns="http://www.w3.org/2000/svg">
<rect width="50" height="32" rx="3" fill="#0F3560"/>
<path d="M29.3632 23.8654H20.614V8.1416H29.3632V23.8654Z" fill="#FF5F00"/>
<path d="M21.1745 16.002C21.1745 12.8123 22.6679 9.97105 24.9936 8.14004C23.2929 6.80111 21.1465 6.00195 18.8139 6.00195C13.2916 6.00195 8.81519 10.479 8.81519 16.002C8.81519 21.5249 13.2916 26.002 18.8139 26.002C21.1465 26.002 23.2929 25.2028 24.9936 23.8639C22.6679 22.0329 21.1745 19.1916 21.1745 16.002Z" fill="#EB001B"/>
<path d="M41.1631 16.002C41.1631 21.5249 36.6867 26.002 31.1644 26.002C28.8317 26.002 26.6854 25.2028 24.9841 23.8639C27.3103 22.0329 28.8038 19.1916 28.8038 16.002C28.8038 12.8123 27.3103 9.97105 24.9841 8.14004C26.6854 6.80111 28.8317 6.00195 31.1644 6.00195C36.6867 6.00195 41.1631 10.479 41.1631 16.002Z" fill="#F79E1B"/>
<path d="M16.3392 16.0651C16.3392 15.6283 16.6254 15.2694 17.0932 15.2694C17.5401 15.2694 17.8418 15.6128 17.8418 16.0651C17.8418 16.5174 17.5401 16.8607 17.0932 16.8607C16.6254 16.8607 16.3392 16.5019 16.3392 16.0651ZM18.3512 16.0651V14.8225H17.8108V15.1242C17.6395 14.9005 17.3794 14.76 17.0259 14.76C16.3291 14.76 15.7828 15.3063 15.7828 16.0651C15.7828 16.8244 16.3291 17.3701 17.0259 17.3701C17.3794 17.3701 17.6395 17.2297 17.8108 17.0059V17.3076H18.3512V16.0651ZM36.611 16.0651C36.611 15.6283 36.8972 15.2694 37.365 15.2694C37.8125 15.2694 38.1136 15.6128 38.1136 16.0651C38.1136 16.5174 37.8125 16.8607 37.365 16.8607C36.8972 16.8607 36.611 16.5019 36.611 16.0651ZM38.6236 16.0651V13.8246H38.0826V15.1242C37.9112 14.9005 37.6512 14.76 37.2977 14.76C36.6009 14.76 36.0546 15.3063 36.0546 16.0651C36.0546 16.8244 36.6009 17.3701 37.2977 17.3701C37.6512 17.3701 37.9112 17.2297 38.0826 17.0059V17.3076H38.6236V16.0651ZM25.0585 15.2439C25.4066 15.2439 25.6303 15.4623 25.6875 15.8467H24.3979C24.4556 15.4878 24.6734 15.2439 25.0585 15.2439ZM25.0692 14.76C24.3408 14.76 23.8314 15.2903 23.8314 16.0651C23.8314 16.8554 24.3616 17.3701 25.1055 17.3701C25.4798 17.3701 25.8226 17.2767 26.1243 17.022L25.8595 16.6215C25.6512 16.7875 25.3858 16.8815 25.1364 16.8815C24.7883 16.8815 24.4711 16.7203 24.3931 16.2728H26.2385C26.2439 16.2055 26.2492 16.1377 26.2492 16.0651C26.2439 15.2903 25.7654 14.76 25.0692 14.76ZM31.5938 16.0651C31.5938 15.6283 31.88 15.2694 32.3477 15.2694C32.7947 15.2694 33.0964 15.6128 33.0964 16.0651C33.0964 16.5174 32.7947 16.8607 32.3477 16.8607C31.88 16.8607 31.5938 16.5019 31.5938 16.0651ZM33.6058 16.0651V14.8225H33.0654V15.1242C32.8934 14.9005 32.634 14.76 32.2805 14.76C31.5836 14.76 31.0373 15.3063 31.0373 16.0651C31.0373 16.8244 31.5836 17.3701 32.2805 17.3701C32.634 17.3701 32.8934 17.2297 33.0654 17.0059V17.3076H33.6058V16.0651ZM28.5421 16.0651C28.5421 16.8191 29.067 17.3701 29.868 17.3701C30.2423 17.3701 30.4916 17.2868 30.7618 17.0738L30.5024 16.637C30.2994 16.7828 30.0864 16.8607 29.8519 16.8607C29.4205 16.8554 29.1033 16.5435 29.1033 16.0651C29.1033 15.5866 29.4205 15.2748 29.8519 15.2694C30.0864 15.2694 30.2994 15.3474 30.5024 15.4932L30.7618 15.0564C30.4916 14.8434 30.2423 14.76 29.868 14.76C29.067 14.76 28.5421 15.3111 28.5421 16.0651ZM35.5089 14.76C35.197 14.76 34.9941 14.9058 34.8537 15.1242V14.8225H34.3181V17.3076H34.859V15.9145C34.859 15.5033 35.0358 15.2748 35.3893 15.2748C35.4987 15.2748 35.613 15.2903 35.7273 15.3373L35.8939 14.8279C35.7743 14.7809 35.6184 14.76 35.5089 14.76ZM21.0237 15.0201C20.7637 14.8487 20.4054 14.76 20.0103 14.76C19.3807 14.76 18.9754 15.0618 18.9754 15.5557C18.9754 15.9609 19.2771 16.2109 19.833 16.2888L20.0883 16.3251C20.3846 16.3668 20.5245 16.4447 20.5245 16.5852C20.5245 16.7774 20.3269 16.8869 19.9579 16.8869C19.5836 16.8869 19.3134 16.7673 19.1313 16.6268L18.8766 17.0476C19.173 17.266 19.5473 17.3701 19.9526 17.3701C20.6703 17.3701 21.0862 17.0321 21.0862 16.559C21.0862 16.1222 20.7589 15.8937 20.218 15.8157L19.9633 15.7788C19.7294 15.7479 19.542 15.7015 19.542 15.5349C19.542 15.3528 19.7187 15.2439 20.0151 15.2439C20.3322 15.2439 20.6393 15.3635 20.7899 15.4569L21.0237 15.0201ZM27.9958 14.76C27.684 14.76 27.4811 14.9058 27.3412 15.1242V14.8225H26.8056V17.3076H27.346V15.9145C27.346 15.5033 27.5227 15.2748 27.8762 15.2748C27.9857 15.2748 28.1 15.2903 28.2142 15.3373L28.3809 14.8279C28.2612 14.7809 28.1053 14.76 27.9958 14.76ZM23.3845 14.8225H22.5008V14.0685H21.9545V14.8225H21.4504V15.3165H21.9545V16.4501C21.9545 17.0267 22.1782 17.3701 22.8173 17.3701C23.0518 17.3701 23.322 17.2975 23.4934 17.1779L23.3375 16.7149C23.1762 16.8084 22.9994 16.8554 22.859 16.8554C22.5888 16.8554 22.5008 16.6887 22.5008 16.4394V15.3165H23.3845V14.8225ZM15.3049 17.3076V15.7479C15.3049 15.1605 14.9306 14.7654 14.3272 14.76C14.01 14.7547 13.6827 14.8535 13.4536 15.2022C13.2822 14.9267 13.012 14.76 12.6324 14.76C12.3669 14.76 12.1075 14.838 11.9046 15.129V14.8225H11.3636V17.3076H11.9093V15.93C11.9093 15.4986 12.1485 15.2694 12.5181 15.2694C12.8769 15.2694 13.0584 15.5033 13.0584 15.9246V17.3076H13.6047V15.93C13.6047 15.4986 13.8541 15.2694 14.2129 15.2694C14.5819 15.2694 14.7586 15.5033 14.7586 15.9246V17.3076H15.3049Z" fill="white"/>
</svg>
