<svg width="28" height="28" viewBox="0 0 28 28" fill="none" xmlns="http://www.w3.org/2000/svg">
<path d="M5 21.5C4.71667 21.5 4.47933 21.404 4.288 21.212C4.096 21.0207 4 20.7833 4 20.5C4 20.2167 4.096 19.9793 4.288 19.788C4.47933 19.596 4.71667 19.5 5 19.5H23C23.2833 19.5 23.5207 19.596 23.712 19.788C23.904 19.9793 24 20.2167 24 20.5C24 20.7833 23.904 21.0207 23.712 21.212C23.5207 21.404 23.2833 21.5 23 21.5H5ZM5 18.5V17.5C5 15.3667 5.65433 13.4833 6.963 11.85C8.271 10.2167 9.95 9.18333 12 8.75V8.5C12 7.95 12.196 7.47933 12.588 7.088C12.9793 6.696 13.45 6.5 14 6.5C14.55 6.5 15.021 6.696 15.413 7.088C15.8043 7.47933 16 7.95 16 8.5V8.75C18.0667 9.18333 19.75 10.2167 21.05 11.85C22.35 13.4833 23 15.3667 23 17.5V18.5H5Z" fill="#0066B3"/>
</svg>
