<svg width="50" height="32" viewBox="0 0 50 32" fill="none" xmlns="http://www.w3.org/2000/svg">
<rect width="50" height="32" rx="3" fill="#082069"/>
<path d="M14.8739 20.9004H12.8012C12.6594 20.9004 12.5387 21.0034 12.5166 21.1435L11.6783 26.4584C11.6617 26.5632 11.7429 26.6578 11.8493 26.6578H12.8388C12.9806 26.6578 13.1012 26.5548 13.1234 26.4144L13.3494 24.9809C13.3713 24.8406 13.4922 24.7376 13.6337 24.7376H14.2899C15.6552 24.7376 16.4432 24.0769 16.649 22.7676C16.7417 22.1948 16.6529 21.7447 16.3847 21.4295C16.0901 21.0834 15.5676 20.9004 14.8739 20.9004ZM15.113 22.8416C14.9997 23.5853 14.4314 23.5853 13.8819 23.5853H13.5692L13.7886 22.1963C13.8016 22.1124 13.8744 22.0505 13.9592 22.0505H14.1026C14.4769 22.0505 14.8299 22.0505 15.0124 22.2639C15.1212 22.3912 15.1545 22.5803 15.113 22.8416Z" fill="white"/>
<path d="M21.0696 22.817H20.077C19.9925 22.817 19.9195 22.8788 19.9064 22.9628L19.8625 23.2404L19.7931 23.1397C19.5782 22.8279 19.099 22.7236 18.6208 22.7236C17.524 22.7236 16.5872 23.5543 16.4048 24.7196C16.3099 25.3009 16.4448 25.8568 16.7745 26.2444C17.077 26.6008 17.5097 26.7493 18.0247 26.7493C18.9084 26.7493 19.3985 26.181 19.3985 26.181L19.3542 26.4568C19.3376 26.5623 19.4188 26.6569 19.5246 26.6569H20.4186C20.5607 26.6569 20.6808 26.5538 20.7032 26.4135L21.2396 23.0164C21.2566 22.9118 21.1757 22.817 21.0696 22.817ZM19.6861 24.7487C19.5903 25.3158 19.1403 25.6964 18.5662 25.6964C18.278 25.6964 18.0477 25.604 17.8998 25.4288C17.7531 25.2549 17.6973 25.0073 17.744 24.7315C17.8334 24.1693 18.2911 23.7762 18.8563 23.7762C19.1381 23.7762 19.3673 23.8698 19.5182 24.0465C19.6694 24.225 19.7294 24.4742 19.6861 24.7487Z" fill="white"/>
<path d="M26.3557 22.8174H25.3583C25.2631 22.8174 25.1737 22.8647 25.1198 22.9438L23.7441 24.9701L23.161 23.0229C23.1244 22.901 23.0119 22.8174 22.8846 22.8174H21.9045C21.7854 22.8174 21.7027 22.9338 21.7405 23.0459L22.8392 26.27L21.8063 27.728C21.7251 27.8429 21.8069 28.0008 21.9472 28.0008H22.9434C23.038 28.0008 23.1265 27.9547 23.1801 27.8771L26.4975 23.0886C26.5769 22.9741 26.4954 22.8174 26.3557 22.8174Z" fill="white"/>
<path d="M29.6578 20.8994H27.5848C27.4433 20.8994 27.3227 21.0025 27.3005 21.1425L26.4623 26.4574C26.4456 26.5623 26.5268 26.6568 26.6326 26.6568H27.6964C27.7952 26.6568 27.8797 26.5847 27.8952 26.4865L28.1331 24.9799C28.1549 24.8396 28.2758 24.7366 28.4174 24.7366H29.0732C30.4388 24.7366 31.2265 24.0759 31.4326 22.7666C31.5256 22.1938 31.4362 21.7438 31.168 21.4286C30.8737 21.0825 30.3515 20.8994 29.6578 20.8994ZM29.8969 22.8406C29.7839 23.5843 29.2156 23.5843 28.6659 23.5843H28.3534L28.5731 22.1953C28.5862 22.1114 28.6583 22.0496 28.7435 22.0496H28.8868C29.2608 22.0496 29.6142 22.0496 29.7966 22.2629C29.9054 22.3902 29.9385 22.5793 29.8969 22.8406Z" fill="white"/>
<path d="M35.8533 22.817H34.8613C34.7762 22.817 34.7037 22.8788 34.691 22.9628L34.6471 23.2404L34.5774 23.1397C34.3625 22.8279 33.8836 22.7236 33.4054 22.7236C32.3086 22.7236 31.3721 23.5543 31.1896 24.7196C31.0951 25.3009 31.2293 25.8568 31.5591 26.2444C31.8622 26.6008 32.2943 26.7493 32.8092 26.7493C33.693 26.7493 34.1831 26.181 34.1831 26.181L34.1388 26.4568C34.1221 26.5623 34.2034 26.6569 34.3097 26.6569H35.2035C35.345 26.6569 35.4656 26.5538 35.4878 26.4135L36.0245 23.0164C36.0409 22.9118 35.9597 22.817 35.8533 22.817ZM34.4698 24.7487C34.3746 25.3158 33.9239 25.6964 33.3499 25.6964C33.0623 25.6964 32.8314 25.604 32.6835 25.4288C32.5368 25.2549 32.4816 25.0073 32.5277 24.7315C32.6177 24.1693 33.0747 23.7762 33.64 23.7762C33.9218 23.7762 34.1509 23.8698 34.3019 24.0465C34.4537 24.225 34.5137 24.4742 34.4698 24.7487Z" fill="white"/>
<path d="M37.0234 21.0455L36.1727 26.4577C36.156 26.5626 36.2373 26.6571 36.343 26.6571H37.1983C37.3404 26.6571 37.4611 26.5541 37.4829 26.4138L38.3218 21.0991C38.3384 20.9943 38.2572 20.8994 38.1514 20.8994H37.1938C37.1092 20.8997 37.0365 20.9615 37.0234 21.0455Z" fill="white"/>
<path opacity="0.68" d="M30.1159 7.42382C30.2803 6.37542 30.1148 5.66222 29.5477 5.016C28.9235 4.30472 27.7957 4 26.3529 4H22.1645C21.8697 4 21.6185 4.21454 21.5726 4.50594L19.8285 15.5653C19.7942 15.7835 19.9629 15.9808 20.1836 15.9808H22.7693L22.5908 17.1125C22.5608 17.3034 22.7082 17.4759 22.9015 17.4759H25.081C25.3389 17.4759 25.5585 17.2883 25.5988 17.0334L25.6202 16.9225L26.0307 14.3189L26.0572 14.1751C26.0974 13.9203 26.317 13.7324 26.575 13.7324H26.9009C29.0124 13.7324 30.6657 12.8747 31.1487 10.3939C31.3506 9.35726 31.2462 8.49198 30.7124 7.88364C30.5511 7.69999 30.3502 7.5479 30.1159 7.42382Z" fill="white"/>
<path opacity="0.7" d="M30.1159 7.42382C30.2803 6.37542 30.1148 5.66222 29.5477 5.016C28.9235 4.30472 27.7957 4 26.3529 4H22.1645C21.8697 4 21.6185 4.21454 21.5726 4.50594L19.8285 15.5653C19.7942 15.7835 19.9629 15.9808 20.1836 15.9808H22.7693L23.4188 11.862L23.3986 11.9911C23.4446 11.6999 23.6935 11.4852 23.9884 11.4852H25.2175C27.631 11.4852 29.521 10.5046 30.073 7.66883C30.0895 7.5851 30.1034 7.5037 30.1159 7.42382Z" fill="white"/>
<path d="M24.1166 7.43768C24.1442 7.26254 24.2568 7.11896 24.4082 7.04649C24.4769 7.01355 24.5539 6.99515 24.6345 6.99515H27.9176C28.3066 6.99515 28.6693 7.02068 29.0008 7.07408C29.0955 7.08931 29.1877 7.10688 29.2773 7.12679C29.3668 7.14669 29.4538 7.16879 29.538 7.1935C29.5801 7.20571 29.6214 7.21875 29.6622 7.2322C29.825 7.28628 29.9767 7.34997 30.1161 7.42395C30.2806 6.37556 30.115 5.66236 29.548 5.01614C28.9235 4.30472 27.7957 4 26.3529 4H22.1645C21.8697 4 21.6185 4.21454 21.5726 4.50594L19.8285 15.5653C19.7942 15.7835 19.9629 15.9808 20.1836 15.9808H22.7693L23.4188 11.862L24.1166 7.43768Z" fill="white"/>
</svg>
