<svg width="37" height="38" viewBox="0 0 37 38" fill="none" xmlns="http://www.w3.org/2000/svg">
<circle cx="18.5" cy="19" r="18.5" fill="white"/>
<path d="M24 17.3342L20.6667 14.0009M11.0833 26.9176L13.9036 26.6042C14.2482 26.5659 14.4205 26.5468 14.5815 26.4946C14.7244 26.4484 14.8604 26.383 14.9857 26.3004C15.127 26.2072 15.2496 26.0846 15.4948 25.8395L26.5 14.8342C27.4205 13.9138 27.4205 12.4214 26.5 11.5009C25.5795 10.5804 24.0871 10.5804 23.1667 11.5009L12.1614 22.5061C11.9163 22.7513 11.7937 22.8739 11.7005 23.0152C11.6178 23.1405 11.5525 23.2765 11.5062 23.4194C11.4541 23.5804 11.435 23.7527 11.3967 24.0973L11.0833 26.9176Z" stroke="#0066B3" stroke-width="2" stroke-linecap="round" stroke-linejoin="round"/>
</svg>
