<svg width="35" height="23" viewBox="0 0 35 23" fill="none" xmlns="http://www.w3.org/2000/svg">
<path d="M0.427734 9.84577C0.593477 9.40472 0.922731 9.17095 1.36495 9.02785C2.05083 8.80594 2.72815 8.55443 3.39825 8.28812C3.87783 8.09759 4.27493 8.18407 4.66249 8.50762C5.38778 9.11317 6.12386 9.70598 6.86627 10.2903C6.95801 10.3625 7.1357 10.4077 7.23957 10.3705C9.38156 9.60327 11.5187 8.82244 13.6564 8.04321C13.7065 8.02493 13.7521 7.99435 13.833 7.95218C13.0629 7.39736 12.3177 6.85965 11.5717 6.32302C10.7416 5.72594 9.91516 5.12386 9.07878 4.5357C8.69888 4.26858 8.49017 3.93389 8.56568 3.46216C8.63728 3.01504 8.9396 2.78395 9.34438 2.63853C10.7753 2.12437 12.2059 1.60922 13.6303 1.07713C14.0348 0.926012 14.3944 0.944556 14.7806 1.13713C17.195 2.34137 19.6173 3.52965 22.0307 4.73576C22.2642 4.85247 22.455 4.84578 22.6893 4.7659C23.9696 4.32912 25.2317 3.80898 26.5431 3.50041C28.7427 2.98277 30.8995 3.28296 32.9428 4.24799C34.0663 4.77856 34.6391 5.71764 34.582 6.95541C34.5251 8.19147 33.8723 9.07457 32.7074 9.50796C30.0966 10.4792 27.4746 11.4204 24.8576 12.3751C24.42 12.5347 23.89 12.5993 23.5754 12.8928C23.2613 13.1858 23.1595 13.7093 22.9722 14.1351C22.1501 16.005 21.326 17.874 20.5145 19.7485C20.3438 20.1429 20.0848 20.3935 19.6758 20.5382C18.2426 21.0455 16.8159 21.5716 15.3889 22.0966C14.9734 22.2495 14.5805 22.2602 14.2331 21.9515C13.8734 21.6318 13.8518 21.2333 13.9666 20.7905C14.3624 19.2647 14.7451 17.7355 15.132 16.2075C15.1531 16.1241 15.1664 16.0388 15.1941 15.9003C14.9281 15.9929 14.7032 16.0682 14.4804 16.1492C12.7699 16.7713 11.0609 17.398 9.34901 18.0164C6.24556 19.1378 3.14603 17.6875 2.00875 14.5846C1.50448 13.209 1.00404 11.832 0.500843 10.4561C0.482566 10.4061 0.452431 10.3605 0.427824 10.3128C0.427735 10.1572 0.427734 10.0015 0.427734 9.84577ZM2.72771 10.6753C2.76658 10.7975 2.79618 10.903 2.83345 11.0056C3.18606 11.9757 3.53359 12.9477 3.89744 13.9135C4.0063 14.2026 4.13398 14.4918 4.30008 14.7509C5.22944 16.2009 6.93875 16.7532 8.62916 16.1449C11.125 15.2466 13.6172 14.3381 16.1078 13.4253C16.545 13.2651 16.9547 13.2246 17.3244 13.5559C17.6964 13.8892 17.6926 14.3042 17.5761 14.7528C17.1858 16.257 16.8067 17.7642 16.4246 19.2706C16.3999 19.368 16.3855 19.4679 16.3579 19.6103C17.1091 19.3383 17.8025 19.1023 18.4815 18.8304C18.6431 18.7657 18.8134 18.6063 18.884 18.4478C19.8591 16.2572 20.8236 14.0619 21.7741 11.8605C21.9558 11.4395 22.2337 11.1918 22.6634 11.0372C25.7338 9.93288 28.7978 8.81094 31.8652 7.69799C32.2735 7.54981 32.578 7.31417 32.588 6.84735C32.5979 6.38124 32.306 6.13713 31.9037 5.96675C29.7726 5.06404 27.64 5.07491 25.4754 5.8677C19.4309 8.08145 13.3784 10.273 7.33131 12.4796C6.87724 12.6453 6.49529 12.5865 6.12422 12.2786C5.3885 11.6682 4.63619 11.0779 3.90092 10.467C3.75042 10.3419 3.62471 10.3234 3.45389 10.3967C3.2211 10.4966 2.98064 10.5792 2.72771 10.6753ZM19.7221 5.83515C19.5597 5.74956 19.4572 5.69277 19.3525 5.64088C17.8921 4.91729 16.4134 4.22748 14.979 3.45574C14.359 3.12221 13.824 3.03947 13.1881 3.3607C12.7245 3.59491 12.2117 3.73204 11.6723 3.93032C13.1477 4.9912 14.5683 6.01685 15.9977 7.03012C16.0827 7.09039 16.2497 7.08736 16.3586 7.05205C16.8011 6.90851 17.2359 6.74116 17.6732 6.58193C18.3369 6.34032 19.0005 6.09817 19.7221 5.83515Z" fill="#9CA1A2"/>
</svg>
