<svg width="167" height="112" viewBox="0 0 167 112" fill="none" xmlns="http://www.w3.org/2000/svg">
<path d="M131.8 3.52C132.28 3.44 132.64 3.58 132.88 3.93999C133.16 4.3 133.22 4.7 133.06 5.13999C132.94 5.57999 132.64 5.83999 132.16 5.91999C125.24 7.23999 114.88 9.23999 101.08 11.92C87.32 14.56 77 16.54 70.12 17.86C68.16 42.14 67.62 70.38 68.5 102.58C68.5 103.06 68.3 103.42 67.9 103.66C67.54 103.94 67.16 104.02 66.76 103.9C66.36 103.78 66.14 103.46 66.1 102.94C65.7 98.86 65.34 95.44 65.02 92.68C64.7 89.96 64.2 86.64 63.52 82.72C62.88 78.84 62.14 75.42 61.3 72.46C60.5 69.46 59.42 66.3 58.06 62.98C56.7 59.66 55.14 56.6 53.38 53.8C52.1 51.8 50.7 49.94 49.18 48.22C47.66 46.5 46.08 44.96 44.44 43.6C42.84 42.24 41.1 41.02 39.22 39.94C37.34 38.82 35.46 37.86 33.58 37.06C31.7 36.22 29.68 35.48 27.52 34.84C25.36 34.16 23.26 33.62 21.22 33.22C19.18 32.78 17 32.42 14.68 32.14C12.36 31.82 10.14 31.58 8.02 31.42C5.94 31.26 3.7 31.14 1.3 31.06C0.62 31.02 0.28 30.64 0.28 29.92C0.28 29.2 0.62 28.78 1.3 28.66L67.84 15.82C68.24 10.98 68.7 6.36 69.22 1.95999C69.26 1.48 69.48 1.16 69.88 1C70.32 0.839997 70.72 0.899995 71.08 1.17999C71.48 1.42 71.66 1.78 71.62 2.25999C71.14 6.5 70.7 10.86 70.3 15.34C74.86 14.5 79.98 13.54 85.66 12.46C91.38 11.34 96.5 10.34 101.02 9.45999C105.58 8.58 110.7 7.6 116.38 6.51999C122.1 5.39999 127.24 4.39999 131.8 3.52ZM65.68 80.86C65.48 57.98 66.14 37.14 67.66 18.34C62.42 19.34 56.38 20.5 49.54 21.82C42.7 23.14 35.86 24.46 29.02 25.78C22.22 27.1 16.2 28.26 10.96 29.26C15.44 29.7 19.58 30.36 23.38 31.24C27.18 32.08 30.98 33.28 34.78 34.84C38.58 36.4 42.1 38.48 45.34 41.08C48.62 43.68 51.5 46.76 53.98 50.32C59.42 58.16 63.32 68.34 65.68 80.86ZM82.9277 59.2C84.8077 59.68 86.1277 60.84 86.8877 62.68C87.6477 64.48 87.6877 66.3 87.0077 68.14C86.4077 69.9 85.5077 71.52 84.3077 73C83.1077 74.48 81.7477 75.26 80.2277 75.34C78.6677 75.42 77.5277 74.88 76.8077 73.72C76.1277 72.56 75.9277 71.22 76.2077 69.7C76.7677 66.58 78.3877 63.46 81.0677 60.34C81.1477 60.26 81.2477 60.18 81.3677 60.1C81.6477 59.34 82.1677 59.04 82.9277 59.2ZM78.9677 72.58C79.7277 73.26 80.8677 72.8 82.3877 71.2C84.1477 69.36 85.0877 67.44 85.2077 65.44C85.3277 63.72 84.5877 62.5 82.9877 61.78C82.6677 62.14 82.3277 62.58 81.9677 63.1C81.6077 63.58 81.1877 64.18 80.7077 64.9C80.2277 65.62 79.8077 66.34 79.4477 67.06C79.0877 67.78 78.7877 68.5 78.5477 69.22C78.3077 69.9 78.2077 70.54 78.2477 71.14C78.3277 71.74 78.5677 72.22 78.9677 72.58ZM131.165 59.74C131.485 59.38 131.865 59.24 132.305 59.32C132.785 59.4 133.105 59.64 133.265 60.04C133.465 60.4 133.425 60.78 133.145 61.18C132.145 62.42 130.965 63.7 129.605 65.02C128.245 66.34 126.645 67.66 124.805 68.98C122.965 70.26 121.165 71.28 119.405 72.04C117.645 72.76 115.845 73.04 114.005 72.88C112.165 72.68 110.585 71.88 109.265 70.48C108.545 69.68 107.565 68.5 106.325 66.94C105.125 65.38 104.245 64.28 103.685 63.64C103.325 63.28 102.985 63 102.665 62.8C102.345 62.56 102.065 62.4 101.825 62.32C101.585 62.24 101.325 62.26 101.045 62.38C100.765 62.5 100.525 62.62 100.325 62.74C100.165 62.82 99.9448 63.02 99.6648 63.34C99.3848 63.66 99.1848 63.92 99.0648 64.12C98.9448 64.32 98.7248 64.66 98.4048 65.14C98.0848 65.58 97.8648 65.88 97.7448 66.04C97.5448 66.36 97.0048 67.38 96.1248 69.1C95.2848 70.78 94.4048 72.22 93.4848 73.42C92.6048 74.58 91.7648 75.22 90.9648 75.34C90.4848 75.42 90.1048 75.28 89.8248 74.92C89.5448 74.52 89.3448 74.1 89.2248 73.66C89.0648 73.18 89.0048 72.62 89.0448 71.98C89.0848 71.3 89.1248 70.78 89.1648 70.42C89.2048 70.06 89.3048 69.48 89.4648 68.68C89.6248 67.88 89.7248 67.42 89.7648 67.3C90.0048 65.78 90.4648 63.62 91.1448 60.82C91.8248 57.98 92.2248 56.28 92.3448 55.72C92.4648 55.28 92.7448 54.98 93.1848 54.82C93.6248 54.66 94.0248 54.7 94.3848 54.94C94.7448 55.18 94.8648 55.54 94.7448 56.02C94.5448 56.9 94.2048 58.36 93.7248 60.4C93.2448 62.4 92.8848 63.94 92.6448 65.02C92.1648 67.38 91.8648 69.02 91.7448 69.94C91.7448 70.06 91.7448 70.24 91.7448 70.48C92.0648 69.88 92.4648 69.24 92.9448 68.56C93.4648 67.88 94.0048 67.16 94.5648 66.4C95.1248 65.64 95.5248 65.06 95.7648 64.66C95.8848 64.5 96.0448 64.26 96.2448 63.94C96.4848 63.62 96.6848 63.34 96.8448 63.1C97.0048 62.86 97.1848 62.6 97.3848 62.32C97.6248 62 97.8448 61.72 98.0448 61.48C98.2448 61.24 98.4648 61 98.7048 60.76C98.9448 60.52 99.1848 60.3 99.4248 60.1C99.7048 59.9 99.9648 59.74 100.205 59.62C100.845 59.46 101.405 59.38 101.885 59.38C102.365 59.38 102.885 59.56 103.445 59.92C104.005 60.28 104.485 60.66 104.885 61.06C105.325 61.46 105.785 61.96 106.265 62.56C106.785 63.16 107.205 63.72 107.525 64.24C107.885 64.72 108.245 65.24 108.605 65.8C109.005 66.36 109.345 66.8 109.625 67.12C111.025 68.84 112.285 69.86 113.405 70.18C114.525 70.46 116.125 70.22 118.205 69.46C123.085 67.66 127.405 64.42 131.165 59.74ZM164.339 60.28C164.699 59.96 165.079 59.9 165.479 60.1C165.919 60.3 166.179 60.6 166.259 61C166.339 61.4 166.219 61.78 165.899 62.14C164.019 63.7 160.319 66.5 154.799 70.54C155.439 74.78 155.519 79.22 155.039 83.86C154.639 87.66 153.679 91.3 152.159 94.78C150.639 98.3 148.479 101.48 145.679 104.32C142.879 107.16 139.699 109.18 136.139 110.38C134.259 111.1 132.499 111.14 130.859 110.5C129.219 109.9 128.059 108.6 127.379 106.6C126.059 102.8 127.159 97.78 130.679 91.54C131.479 90.06 132.379 88.62 133.379 87.22C134.379 85.82 135.459 84.48 136.619 83.2C137.819 81.92 138.979 80.72 140.099 79.6C141.259 78.48 142.539 77.32 143.939 76.12C145.379 74.92 146.679 73.86 147.839 72.94C149.039 72.02 150.419 70.98 151.979 69.82C151.379 66.86 150.479 64.52 149.279 62.8C148.919 62.32 148.559 61.96 148.199 61.72C147.879 61.48 147.579 61.34 147.299 61.3C147.059 61.22 146.739 61.3 146.339 61.54C145.979 61.74 145.679 61.96 145.439 62.2C145.199 62.4 144.819 62.74 144.299 63.22C144.259 63.26 144.219 63.3 144.179 63.34C144.139 63.38 144.079 63.42 143.999 63.46C143.959 63.5 143.919 63.54 143.879 63.58C143.039 64.38 141.919 65.62 140.519 67.3C139.119 68.94 138.099 70.08 137.459 70.72C136.979 71.24 136.559 71.66 136.199 71.98C135.839 72.3 135.339 72.7 134.699 73.18C134.059 73.66 133.479 74 132.959 74.2C132.479 74.36 131.919 74.42 131.279 74.38C130.679 74.3 130.119 74.04 129.599 73.6C127.559 71.84 127.679 67.84 129.959 61.6C130.119 61.16 130.419 60.92 130.859 60.88C131.299 60.8 131.679 60.94 131.999 61.3C132.319 61.62 132.379 62.02 132.179 62.5C131.139 65.38 130.679 67.4 130.799 68.56C130.879 69.4 131.039 70.04 131.279 70.48C131.519 70.88 131.839 71.08 132.239 71.08C132.639 71.08 133.059 70.98 133.499 70.78C133.939 70.54 134.459 70.2 135.059 69.76C136.059 69 137.319 67.68 138.839 65.8C140.359 63.92 141.379 62.72 141.899 62.2C142.619 61.48 143.199 60.94 143.639 60.58C144.119 60.18 144.719 59.76 145.439 59.32C146.159 58.88 146.879 58.68 147.599 58.72C148.319 58.72 149.019 58.98 149.699 59.5C151.859 61.06 153.399 63.9 154.319 68.02C158.919 64.58 162.259 62 164.339 60.28ZM152.819 78.28C152.739 76.08 152.599 74.1 152.399 72.34C150.119 74.02 148.159 75.54 146.519 76.9C144.879 78.26 143.099 79.86 141.179 81.7C139.259 83.54 137.619 85.32 136.259 87.04C134.939 88.8 133.699 90.76 132.539 92.92C131.379 95.08 130.519 97.3 129.959 99.58C129.439 101.54 129.359 103.28 129.719 104.8C130.119 106.36 130.919 107.42 132.119 107.98C133.359 108.54 135.059 108.3 137.219 107.26C138.419 106.66 139.619 105.92 140.819 105.04C142.059 104.16 143.199 103.2 144.239 102.16C145.279 101.16 146.219 100.1 147.059 98.98C151.099 93.58 153.019 86.68 152.819 78.28Z" fill="#292E36" fill-opacity="0.3"/>
</svg>
