<svg width="32" height="32" viewBox="0 0 32 32" fill="none" xmlns="http://www.w3.org/2000/svg">
<g clip-path="url(#clip0_1224_10306)">
<path fill-rule="evenodd" clip-rule="evenodd" d="M15.9094 0.503906C7.36403 0.503906 0.421875 7.44622 0.421875 15.9916C0.421875 24.5369 7.36404 31.4788 15.9094 31.4788C24.4547 31.4788 31.3969 24.5369 31.3969 15.9916C31.3969 7.4462 24.4547 0.503906 15.9094 0.503906ZM25.1807 20.9976C25.0748 21.2548 24.5757 21.6175 22.8213 21.8901C22.67 21.92 22.6247 22.1016 22.5339 22.4951C22.5057 22.6379 22.4704 22.7792 22.428 22.9185C22.3827 23.0544 22.307 23.115 22.171 23.115H22.1558C22.0226 23.1119 21.8905 23.0915 21.7626 23.0544C21.4131 22.9907 21.059 22.9554 20.7038 22.9488C20.4505 22.947 20.1975 22.9671 19.9476 23.0091C19.4182 23.1001 18.9796 23.4175 18.4957 23.7503C17.815 24.2344 17.1042 24.7334 16.0001 24.7334H15.7581C14.654 24.7334 13.9432 24.2344 13.2626 23.7503C12.7937 23.4175 12.34 23.1001 11.8106 23.0091C11.5608 22.9671 11.3077 22.947 11.0544 22.9488C10.6984 22.955 10.3439 22.9955 9.99567 23.0698C9.8666 23.1013 9.735 23.1215 9.60239 23.13C9.54074 23.1368 9.47876 23.1204 9.42847 23.0841C9.37818 23.0478 9.34316 22.9941 9.33018 22.9335C9.28479 22.7822 9.25456 22.631 9.22428 22.4951C9.14865 22.132 9.0882 21.92 8.93696 21.8901C7.18247 21.6175 6.6834 21.2548 6.57749 20.9976C6.56038 20.9594 6.55015 20.9185 6.54727 20.8767C6.54624 20.8293 6.56258 20.7831 6.59323 20.7469C6.62387 20.7107 6.66669 20.687 6.71362 20.6802C9.4058 20.2264 10.6158 17.4737 10.6611 17.3528H10.6763C10.8426 17.02 10.8729 16.7175 10.767 16.4906C10.5855 16.0518 9.98052 15.8553 9.58729 15.7343C9.49508 15.7086 9.40423 15.6782 9.31508 15.6433C8.51346 15.3259 8.45295 15.0085 8.48321 14.8418C8.54367 14.5547 8.90667 14.3578 9.22427 14.3578C9.29741 14.3567 9.36982 14.3724 9.43602 14.4035C9.79902 14.5697 10.1166 14.6602 10.3889 14.6602C10.7821 14.6602 10.9485 14.494 10.9636 14.4791C10.9636 14.2975 10.9485 14.101 10.9334 13.904C10.8577 12.6338 10.7519 11.0457 11.1602 10.1383C12.3702 7.43082 14.9263 7.21933 15.6825 7.21933H16.0606C16.8169 7.21933 19.388 7.43082 20.598 10.1383C21.0063 11.0458 20.9005 12.6338 20.8248 13.904V13.9647C20.8097 14.1309 20.7946 14.3125 20.7946 14.4791C20.8097 14.494 20.961 14.6453 21.3088 14.6602C21.5811 14.6453 21.8836 14.5547 22.2163 14.4035C22.3071 14.3644 22.4048 14.3438 22.5036 14.3428C22.6138 14.3446 22.7222 14.3704 22.8213 14.4184H22.8364C23.0935 14.509 23.275 14.706 23.275 14.9025C23.2901 15.0841 23.1389 15.3712 22.4431 15.6433C22.3675 15.6737 22.2767 15.704 22.186 15.7343C21.7776 15.8553 21.1726 16.0518 20.9912 16.4906C20.8853 16.7175 20.9155 17.02 21.0819 17.3528H21.097C21.1424 17.4737 22.3524 20.2264 25.0446 20.6802C25.0915 20.687 25.1343 20.7107 25.165 20.7469C25.1956 20.7831 25.2119 20.8293 25.2109 20.8767C25.208 20.9185 25.1978 20.9594 25.1806 20.9976H25.1807Z" fill="white"/>
</g>
<defs>
<clipPath id="clip0_1224_10306">
<rect width="32" height="32" fill="white"/>
</clipPath>
</defs>
</svg>
