<svg width="24" height="25" viewBox="0 0 24 25" fill="none" xmlns="http://www.w3.org/2000/svg">
<path d="M18.4687 22.7019C18.3109 22.7025 18.1568 22.6533 18.0286 22.5613L12 18.1906L5.97139 22.5613C5.84259 22.6547 5.68742 22.7047 5.52832 22.7041C5.36921 22.7036 5.21441 22.6524 5.08629 22.558C4.95818 22.4637 4.86339 22.331 4.81563 22.1793C4.76787 22.0275 4.76961 21.8645 4.82061 21.7138L7.17186 14.7495L1.07811 10.5706C0.946113 10.4802 0.846491 10.35 0.793797 10.1989C0.741103 10.0478 0.7381 9.88387 0.785225 9.73098C0.83235 9.57808 0.927135 9.44426 1.05573 9.34907C1.18432 9.25388 1.33999 9.20231 1.49998 9.20189H9.0178L11.2865 2.21986C11.3354 2.06912 11.4308 1.93773 11.559 1.84455C11.6871 1.75136 11.8415 1.70117 12 1.70117C12.1584 1.70117 12.3128 1.75136 12.441 1.84455C12.5692 1.93773 12.6645 2.06912 12.7134 2.21986L14.9822 9.20423H22.5C22.6602 9.20415 22.8162 9.25537 22.9452 9.35037C23.0741 9.44538 23.1693 9.57919 23.2167 9.7322C23.2642 9.88521 23.2613 10.0494 23.2087 10.2007C23.1561 10.352 23.0564 10.4825 22.9242 10.573L16.8281 14.7495L19.178 21.7119C19.216 21.8246 19.2267 21.9448 19.2092 22.0624C19.1917 22.1801 19.1464 22.2919 19.0771 22.3887C19.0078 22.4854 18.9165 22.5642 18.8107 22.6187C18.7049 22.6732 18.5877 22.7017 18.4687 22.7019Z" fill="#FFC107"/>
</svg>
