<svg width="29" height="27" viewBox="0 0 29 27" fill="none" xmlns="http://www.w3.org/2000/svg">
<path d="M22.4389 18.4724C24.3621 19.4205 26.0109 20.942 27.2144 22.8445C27.4528 23.2213 27.5719 23.4097 27.6131 23.6705C27.6969 24.2006 27.3275 24.8524 26.8243 25.0621C26.5768 25.1654 26.2983 25.1654 25.7413 25.1654M19.797 12.8923C21.7543 11.9378 23.0994 9.95574 23.0994 7.66536C23.0994 5.37499 21.7543 3.39292 19.797 2.43839M17.1551 7.66536C17.1551 10.887 14.4938 13.4987 11.2109 13.4987C7.92799 13.4987 5.26666 10.887 5.26666 7.66536C5.26666 4.4437 7.92799 1.83203 11.2109 1.83203C14.4938 1.83203 17.1551 4.4437 17.1551 7.66536ZM2.04255 22.4928C4.14853 19.3898 7.4718 17.3876 11.2109 17.3876C14.95 17.3876 18.2733 19.3898 20.3793 22.4928C20.8406 23.1726 21.0713 23.5125 21.0447 23.9467C21.0241 24.2848 20.7982 24.6987 20.523 24.903C20.1694 25.1654 19.6832 25.1654 18.7107 25.1654H3.71106C2.7386 25.1654 2.25237 25.1654 1.89884 24.903C1.62357 24.6987 1.39774 24.2848 1.37706 23.9467C1.3505 23.5125 1.58118 23.1726 2.04255 22.4928Z" stroke="#9CA1A2" stroke-width="2.5" stroke-linecap="round" stroke-linejoin="round"/>
</svg>
