<svg width="544" height="98" viewBox="0 0 544 98" fill="none" xmlns="http://www.w3.org/2000/svg">
<path d="M36.68 96L0.072 6.39999H12.488L44.36 85.504H44.744L76.488 6.39999H88.648L51.912 96H36.68ZM103.788 96V32H114.028V96H103.788ZM108.268 22.912L102.38 0.639992H115.564L109.548 22.912H108.268ZM166.055 97.28C159.74 97.28 154.023 95.8293 148.903 92.928C143.783 90.0267 139.73 86.1013 136.743 81.152C133.842 76.1173 132.391 70.4853 132.391 64.256C132.391 57.856 133.884 52.1387 136.871 47.104C139.858 41.984 143.911 37.9733 149.031 35.072C154.151 32.1707 159.868 30.72 166.183 30.72C172.412 30.72 178.044 32.1707 183.079 35.072C188.199 37.9733 192.21 41.984 195.111 47.104C198.098 52.1387 199.591 57.7707 199.591 64C199.591 64.1707 199.591 64.384 199.591 64.64C199.591 64.896 199.591 65.1093 199.591 65.28H142.375C142.546 69.5467 143.698 73.4293 145.831 76.928C147.964 80.3413 150.78 83.072 154.279 85.12C157.863 87.0827 161.831 88.064 166.183 88.064C170.962 88.064 175.186 86.9973 178.855 84.864C182.524 82.6453 185.042 79.7867 186.407 76.288H197.287C196.519 80.0427 194.684 83.5413 191.783 86.784C188.967 89.9413 185.34 92.5013 180.903 94.464C176.466 96.3413 171.516 97.28 166.055 97.28ZM189.863 62.72C189.692 58.4533 188.54 54.6133 186.407 51.2C184.274 47.7013 181.415 44.9707 177.831 43.008C174.332 40.96 170.45 39.936 166.183 39.936C161.916 39.936 157.991 40.96 154.407 43.008C150.908 44.9707 148.05 47.7013 145.831 51.2C143.698 54.6133 142.546 58.4533 142.375 62.72H189.863ZM244.722 97.28C236.957 97.28 231.197 95.5307 227.442 92.032C223.687 88.448 221.81 83.2 221.81 76.288V41.344H206.194V32H218.098C219.634 32 220.786 31.616 221.554 30.848C222.322 29.9947 222.706 28.8 222.706 27.264V16.64H232.05L231.922 32H259.442V41.344H231.922V74.112C231.922 78.8053 233.117 82.2613 235.506 84.48C237.895 86.6133 241.607 87.68 246.642 87.68C250.311 87.68 254.578 87.0827 259.442 85.888V95.232C257.223 95.744 254.706 96.2133 251.89 96.64C249.159 97.0667 246.77 97.28 244.722 97.28ZM276.788 96V32H287.028V52.096C288.649 45.6107 291.679 40.448 296.116 36.608C300.553 32.6827 305.759 30.72 311.732 30.72C317.108 30.72 321.759 31.9573 325.684 34.432C329.695 36.9067 332.724 40.448 334.772 45.056C336.905 49.5787 337.972 54.9547 337.972 61.184V96H327.732V62.592C327.732 55.7653 325.897 50.3467 322.228 46.336C318.644 42.3253 313.695 40.32 307.38 40.32C303.625 40.32 300.169 41.3013 297.012 43.264C293.94 45.2267 291.508 47.9147 289.716 51.328C287.924 54.7413 287.028 58.496 287.028 62.592V96H276.788ZM374.728 97.536C368.584 97.536 363.763 96.0853 360.264 93.184C356.765 90.2827 355.016 86.3147 355.016 81.28C355.016 76.3307 356.637 72.4907 359.88 69.76C363.208 67.0293 367.176 65.152 371.784 64.128C376.392 63.0187 381.64 62.2507 387.528 61.824C392.648 61.4827 396.573 60.8853 399.304 60.032C402.12 59.1787 403.528 57.6427 403.528 55.424C403.528 50.4747 401.864 46.5493 398.536 43.648C395.208 40.6613 391.027 39.168 385.992 39.168C380.701 39.168 376.349 40.6613 372.936 43.648C369.523 46.5493 367.432 50.6027 366.664 55.808H357.064C357.576 50.6027 359.112 46.1227 361.672 42.368C364.317 38.528 367.731 35.6267 371.912 33.664C376.179 31.7013 380.915 30.72 386.12 30.72C391.411 30.72 396.061 31.744 400.072 33.792C404.168 35.84 407.325 38.8267 409.544 42.752C411.848 46.6773 413 51.2427 413 56.448V86.912H421.832V96H403.656V75.136C401.779 81.792 398.28 87.2107 393.16 91.392C388.04 95.488 381.896 97.536 374.728 97.536ZM379.08 89.344C383.688 89.344 387.827 88.2773 391.496 86.144C395.251 83.9253 398.195 81.024 400.328 77.44C402.461 73.7707 403.528 69.8453 403.528 65.664L403.656 60.544C402.461 61.568 400.797 62.336 398.664 62.848C396.616 63.36 393.843 63.744 390.344 64C390.173 64 389.96 64.0427 389.704 64.128C389.448 64.128 389.235 64.128 389.064 64.128C380.957 64.8107 374.984 66.2613 371.144 68.48C367.304 70.6133 365.384 73.8133 365.384 78.08C365.384 81.7493 366.621 84.5653 369.096 86.528C371.571 88.4053 374.899 89.344 379.08 89.344ZM438.788 96V32H449.028V51.328C450.564 45.0133 453.337 40.0213 457.348 36.352C461.359 32.5973 466.351 30.72 472.324 30.72C479.151 30.72 484.484 32.64 488.324 36.48C492.249 40.32 494.724 45.7387 495.748 52.736C497.113 45.9093 499.844 40.5333 503.94 36.608C508.036 32.6827 513.241 30.72 519.556 30.72C525.017 30.72 529.497 31.872 532.996 34.176C536.58 36.48 539.225 39.7653 540.932 44.032C542.639 48.2987 543.492 53.4613 543.492 59.52V96H533.124V60.928C533.124 54.6133 531.503 49.6213 528.26 45.952C525.103 42.1973 520.793 40.32 515.332 40.32C511.748 40.32 508.505 41.3013 505.604 43.264C502.703 45.2267 500.399 47.9147 498.692 51.328C497.071 54.7413 496.26 58.496 496.26 62.592V96H485.892V60.928C485.892 54.6133 484.271 49.6213 481.028 45.952C477.871 42.1973 473.561 40.32 468.1 40.32C464.516 40.32 461.273 41.3013 458.372 43.264C455.471 45.2267 453.167 47.9147 451.46 51.328C449.839 54.7413 449.028 58.496 449.028 62.592V96H438.788Z" fill="white"/>
</svg>
