<svg width="50" height="32" viewBox="0 0 50 32" fill="none" xmlns="http://www.w3.org/2000/svg">
<rect width="50" height="32" rx="3" fill="#0D0D0D"/>
<path d="M4.5625 13.9028H5.57747L5.81961 15.7047H5.82731L6.09388 13.9028H7.26739L7.53302 15.7047H7.54072L7.78343 13.9028H8.79839L8.18036 16.7666H6.95011L6.68486 14.9114H6.67716L6.41135 16.7666H5.18148L4.5625 13.9028Z" fill="#FDDF12"/>
<path d="M9.46076 13.9028H11.6391V14.6495H10.5479V14.954H11.5557V15.7002H10.5479V16.0214H11.6746V16.7666H9.46076V13.9028Z" fill="#FDDF12"/>
<path d="M13.9635 14.7165C13.9591 14.538 13.8601 14.4783 13.7132 14.4783C13.5312 14.4783 13.4512 14.5575 13.4512 14.6455C13.4512 14.7477 13.5186 14.7916 13.6375 14.8275C13.8558 14.8915 14.2563 14.9701 14.5456 15.0935C14.9074 15.2438 15.0656 15.5023 15.0656 15.8468C15.0656 16.549 14.4947 16.8428 13.6847 16.8428C12.9947 16.8428 12.3603 16.6286 12.3603 15.8827H13.4474C13.4474 15.9627 13.4636 16.0416 13.507 16.1015C13.5504 16.1562 13.6219 16.1919 13.7288 16.1919C13.8953 16.1919 14.0031 16.0848 14.0031 15.9582C14.0031 15.8515 13.9197 15.7961 13.8121 15.7639L13.0067 15.5263C12.567 15.3952 12.4126 15.1288 12.4126 14.7604C12.4126 14.1651 12.8925 13.8279 13.7288 13.8279C14.4427 13.8279 14.979 14.0507 14.979 14.7165H13.9635Z" fill="#FDDF12"/>
<path d="M16.3862 14.6735H15.6806V13.903H18.2268V14.6735H17.5207V16.7666H16.3862V14.6735Z" fill="#FDDF12"/>
<path d="M18.9642 13.9028H21.1421V14.6495H20.0518V14.954H21.0591V15.7002H20.0518V16.0214H21.1784V16.7666H18.9642V13.9028Z" fill="#FDDF12"/>
<path d="M21.9874 13.9028H23.6813C24.2961 13.9028 24.6572 14.0899 24.6572 14.6298C24.6572 14.9589 24.518 15.2078 24.0889 15.3117V15.3194C24.3671 15.3434 24.518 15.4657 24.5732 15.6848C24.6365 15.9303 24.6294 16.3347 24.7597 16.7666H23.6495C23.5825 16.5526 23.5466 16.1918 23.5064 15.9464C23.4835 15.8029 23.4115 15.7484 23.2291 15.7484H23.0978V16.7666H21.9874V13.9028ZM23.193 15.097C23.4115 15.097 23.5701 15.0216 23.5701 14.808C23.5701 14.5978 23.423 14.5539 23.2004 14.5539H23.0978V15.097H23.193Z" fill="#FDDF12"/>
<path d="M25.5184 13.9028H26.8783L27.4843 15.6369H27.493V13.9028H28.4134V16.7666H27.0536L26.4461 15.0216H26.438V16.7666H25.5184V13.9028Z" fill="#FDDF12"/>
<path d="M15.0416 19.2363C15.0416 19.927 14.5457 20.2725 13.6814 20.2725C12.8165 20.2725 12.3211 19.927 12.3211 19.2363V17.3331H13.4552V19.1889C13.4552 19.4149 13.5625 19.5034 13.6814 19.5034C13.8003 19.5034 13.9075 19.4149 13.9075 19.1889V17.3331H15.0416V19.2363Z" fill="#FDDF12"/>
<path d="M15.9507 17.3329H17.3111L17.9175 19.0666H17.9256V17.3329H18.8455V20.1973H17.4852L16.879 18.4512H16.87V20.1973H15.9507V17.3329Z" fill="#FDDF12"/>
<path d="M19.7748 17.3329H20.9079V20.1973H19.7748V17.3329Z" fill="#FDDF12"/>
<path d="M23.2125 17.2578C24.2004 17.2578 24.6924 17.8723 24.6924 18.7649C24.6924 19.6572 24.2004 20.2725 23.2125 20.2725C22.2251 20.2725 21.7337 19.6572 21.7337 18.7649C21.7337 17.8723 22.2251 17.2578 23.2125 17.2578ZM23.2125 19.5267C23.3881 19.5267 23.5177 19.4271 23.5177 18.7649C23.5177 18.1182 23.3956 18.0032 23.2125 18.0032C23.0306 18.0032 22.9074 18.1182 22.9074 18.7649C22.9074 19.4271 23.0393 19.5267 23.2125 19.5267Z" fill="#FDDF12"/>
<path d="M25.5184 17.3329H26.8783L27.4843 19.0666H27.493V17.3329H28.4134V20.1973H27.0536L26.4461 18.4512H26.438V20.1973H25.5184V17.3329Z" fill="#FDDF12"/>
<path d="M39.0916 13.8619H38.6083L38.0671 17.8817H38.0496L37.4569 13.8619H34.8383L34.2441 17.8817H34.227L33.6873 13.8619H31.4229L32.8032 20.25H35.5472L36.1393 16.1116H36.1574L36.7493 20.25H39.4933L39.6308 19.6111C39.2799 19.2384 39.0916 18.7389 39.0916 18.1083V13.8619Z" fill="#FDDF12"/>
<path d="M39.0916 13.8621V18.1085C39.0916 18.7391 39.2798 19.2386 39.6308 19.6113L40.8721 13.8621H39.0916Z" fill="white"/>
<path d="M42.6304 13.8622V18.003C42.6304 18.507 42.3912 18.7033 42.126 18.7033C41.8607 18.7033 41.6216 18.507 41.6216 18.003V13.8622H41.0817L39.8066 19.7703C40.3239 20.2007 41.1072 20.4199 42.126 20.4199C44.0545 20.4199 45.1607 19.649 45.1607 18.1086V13.8622H42.6304Z" fill="#FDDF12"/>
<path d="M29.7628 13.8619H29.3859L30.742 20.25H31.1192L29.7628 13.8619Z" fill="#FDDF12"/>
<path d="M31.7726 20.25H32.1497L30.7934 13.8619H30.4167L31.7726 20.25Z" fill="#FDDF12"/>
<path d="M45.9245 14.1674C45.9211 14.1246 45.898 14.1034 45.8542 14.1034C45.8206 14.1034 45.7866 14.121 45.7866 14.158C45.7866 14.2037 45.8278 14.2091 45.864 14.2178C45.9286 14.2343 46.0235 14.2525 46.0235 14.3373C46.0235 14.4423 45.932 14.4785 45.8411 14.4785C45.7445 14.4785 45.676 14.4411 45.6788 14.3344H45.7714C45.768 14.3812 45.7951 14.413 45.8424 14.413C45.8787 14.413 45.9269 14.4019 45.9269 14.3568C45.9269 14.3068 45.8665 14.3032 45.83 14.294C45.771 14.2794 45.6899 14.2525 45.6899 14.1774C45.6899 14.0808 45.7791 14.0378 45.8659 14.0378C45.948 14.0378 46.0119 14.0823 46.0119 14.1674H45.9245Z" fill="#FDDF12"/>
<path d="M46.3581 14.4697H46.2824L46.1706 14.1066L46.1693 14.1077V14.4697H46.0842V14.0467H46.2332L46.3217 14.3544H46.3228L46.419 14.0467H46.5625V14.4697H46.4776V14.1077L46.4766 14.1066L46.3581 14.4697Z" fill="#FDDF12"/>
</svg>
