<svg width="27" height="27" viewBox="0 0 27 27" fill="none" xmlns="http://www.w3.org/2000/svg">
<path d="M25.2319 20.7841C25.2319 21.2041 25.1386 21.6358 24.9403 22.0558C24.7419 22.4758 24.4853 22.8724 24.1469 23.2458C23.5753 23.8758 22.9453 24.3308 22.2336 24.6224C21.5336 24.9141 20.7753 25.0658 19.9586 25.0658C18.7686 25.0658 17.4969 24.7858 16.1553 24.2141C14.8136 23.6424 13.4719 22.8724 12.1419 21.9041C10.8003 20.9241 9.52859 19.8391 8.31526 18.6374C7.11359 17.4241 6.02859 16.1524 5.06026 14.8224C4.10359 13.4924 3.33359 12.1624 2.77359 10.8441C2.21359 9.51409 1.93359 8.24242 1.93359 7.02909C1.93359 6.23576 2.07359 5.47742 2.35359 4.77742C2.63359 4.06576 3.07693 3.41242 3.69526 2.82909C4.44193 2.09409 5.25859 1.73242 6.12193 1.73242C6.44859 1.73242 6.77526 1.80242 7.06693 1.94242C7.37026 2.08242 7.63859 2.29242 7.84859 2.59576L10.5553 6.41076C10.7653 6.70242 10.9169 6.97076 11.0219 7.22742C11.1269 7.47242 11.1853 7.71742 11.1853 7.93909C11.1853 8.21909 11.1036 8.49909 10.9403 8.76742C10.7886 9.03576 10.5669 9.31576 10.2869 9.59576L9.40026 10.5174C9.27193 10.6458 9.21359 10.7974 9.21359 10.9841C9.21359 11.0774 9.22526 11.1591 9.24859 11.2524C9.28359 11.3458 9.31859 11.4158 9.34193 11.4858C9.55193 11.8708 9.91359 12.3724 10.4269 12.9791C10.9519 13.5858 11.5119 14.2041 12.1186 14.8224C12.7486 15.4408 13.3553 16.0124 13.9736 16.5374C14.5803 17.0508 15.0819 17.4008 15.4786 17.6108C15.5369 17.6341 15.6069 17.6691 15.6886 17.7041C15.7819 17.7391 15.8753 17.7508 15.9803 17.7508C16.1786 17.7508 16.3303 17.6808 16.4586 17.5524L17.3453 16.6774C17.6369 16.3858 17.9169 16.1641 18.1853 16.0241C18.4536 15.8608 18.7219 15.7791 19.0136 15.7791C19.2353 15.7791 19.4686 15.8258 19.7253 15.9308C19.9819 16.0358 20.2503 16.1874 20.5419 16.3858L24.4036 19.1274C24.7069 19.3374 24.9169 19.5824 25.0453 19.8741C25.1619 20.1658 25.2319 20.4574 25.2319 20.7841Z" stroke="white" stroke-width="2" stroke-miterlimit="10"/>
<path d="M21.1829 9.89974C21.1829 9.19974 20.6346 8.12641 19.8179 7.25141C19.0713 6.44641 18.0796 5.81641 17.0996 5.81641" stroke="white" stroke-width="2" stroke-linecap="round" stroke-linejoin="round"/>
<path d="M25.2663 9.89909C25.2663 5.38409 21.6146 1.73242 17.0996 1.73242" stroke="white" stroke-width="2" stroke-linecap="round" stroke-linejoin="round"/>
</svg>
