<svg width="24" height="24" viewBox="0 0 24 24" fill="none" xmlns="http://www.w3.org/2000/svg">
<circle cx="12" cy="12" r="12" fill="#E6E8E8"/>
<path d="M6.70587 9.35339L11.0285 12.3792C11.3785 12.6242 11.5535 12.7467 11.7439 12.7942C11.9121 12.8361 12.0879 12.8361 12.2561 12.7942C12.4465 12.7467 12.6215 12.6242 12.9715 12.3792L17.2941 9.35339M9.24705 16.2357H14.7529C15.6424 16.2357 16.0872 16.2357 16.4269 16.0626C16.7258 15.9104 16.9687 15.6674 17.121 15.3685C17.2941 15.0288 17.2941 14.5841 17.2941 13.6946V10.3063C17.2941 9.41683 17.2941 8.97209 17.121 8.63234C16.9687 8.3335 16.7258 8.09053 16.4269 7.93826C16.0872 7.76515 15.6424 7.76515 14.7529 7.76515H9.24705C8.35755 7.76515 7.91281 7.76515 7.57306 7.93826C7.27422 8.09053 7.03125 8.3335 6.87898 8.63234C6.70587 8.97209 6.70587 9.41683 6.70587 10.3063V13.6946C6.70587 14.5841 6.70587 15.0288 6.87898 15.3685C7.03125 15.6674 7.27422 15.9104 7.57306 16.0626C7.91281 16.2357 8.35755 16.2357 9.24705 16.2357Z" stroke="#6A7373" stroke-width="1.3" stroke-linecap="round" stroke-linejoin="round"/>
</svg>
