<svg width="46" height="45" viewBox="0 0 46 45" fill="none" xmlns="http://www.w3.org/2000/svg">
<circle cx="23.1421" cy="22.5" r="22.5" fill="white"/>
<path d="M11.642 28.483C11.7248 28.0567 11.7766 27.6216 11.8945 27.2069C12.4138 25.3898 13.4816 24.0458 15.0787 23.1712C15.1598 23.1271 15.241 23.083 15.3413 23.0274C14.235 22.0619 13.6656 20.8388 13.7258 19.3342C13.7734 18.1428 14.2325 17.1297 15.0654 16.3205C16.7277 14.7037 19.2898 14.7937 20.8644 16.5137C22.4665 18.2646 22.4807 21.2642 20.4103 23.0318C20.5692 23.1201 20.7306 23.1915 20.8736 23.2921C21.2356 23.5481 21.5952 23.8084 21.9422 24.0846C22.0543 24.1737 22.1329 24.1888 22.2667 24.142C23.4783 23.7201 24.5913 23.9293 25.5939 24.7606C25.7051 24.8533 25.782 24.8665 25.8933 24.7862C25.9744 24.7271 26.0672 24.6847 26.155 24.6362C26.2353 24.5912 26.3164 24.5488 26.4209 24.4923C25.3012 23.5101 24.7318 22.2729 24.807 20.7497C24.8656 19.568 25.3255 18.5611 26.1608 17.7686C27.8475 16.1678 30.3928 16.2675 31.944 17.9734C33.5578 19.7489 33.5436 22.7494 31.4899 24.4923C31.5535 24.5294 31.6112 24.5638 31.6697 24.5956C33.9082 25.8443 35.1006 27.799 35.1709 30.4739C35.2093 31.9441 35.1775 33.4161 35.1784 34.8872C27.3332 34.8872 19.4888 34.8872 11.6436 34.8872C11.642 32.7516 11.642 30.6177 11.642 28.483ZM21.234 30.4244C20.4647 29.7193 20.0223 28.8624 19.9604 27.8078C19.8986 26.755 20.2339 25.8461 20.907 25.0545C19.769 24.1305 18.5105 23.7519 17.1174 23.9911C14.7083 24.405 13.0267 26.5194 13.0209 29.0945C13.0175 30.4606 13.02 31.8267 13.02 33.1919C13.02 33.2687 13.02 33.3455 13.02 33.4214C15.1381 33.4214 17.2202 33.4214 19.3107 33.4214C19.5474 32.1479 20.177 31.156 21.234 30.4244ZM33.7978 33.4223C33.7978 33.3499 33.7978 33.2952 33.7978 33.2405C33.7978 32.3112 33.8045 31.3819 33.7962 30.4527C33.7644 27.1045 30.7332 24.6847 27.6752 25.5734C27.2914 25.6846 26.9268 25.8681 26.5572 26.0164C27.1693 27.7523 26.8499 29.1978 25.6123 30.413C27.0121 31.7879 27.0121 31.7879 27.5205 33.4214C29.5993 33.4223 31.6806 33.4223 33.7978 33.4223ZM17.8206 16.6196C16.2753 16.6629 15.052 18.0131 15.0963 19.628C15.1406 21.2474 16.4183 22.5067 17.977 22.4679C19.4587 22.4317 20.6812 21.0594 20.6445 19.4745C20.6068 17.8772 19.3216 16.5773 17.8206 16.6196ZM28.9588 18.0846C27.4294 18.0784 26.1759 19.3906 26.1726 21.0003C26.17 22.5994 27.4101 23.9187 28.9253 23.9275C30.4581 23.9364 31.7132 22.6338 31.7224 21.0233C31.7324 19.4145 30.4882 18.0907 28.9588 18.0846ZM25.4844 27.589C25.4869 26.3782 24.5654 25.3934 23.4215 25.3845C22.2817 25.3757 21.3418 26.3561 21.3343 27.5625C21.3268 28.7839 22.2558 29.7785 23.4072 29.7793C24.5487 29.7811 25.4819 28.7962 25.4844 27.589ZM26.0739 33.4231C25.823 32.1056 24.5737 31.1719 23.1923 31.2452C22.0585 31.3052 20.8535 32.3792 20.7565 33.4231C22.5242 33.4231 24.2928 33.4231 26.0739 33.4231Z" fill="#4475F2"/>
<path d="M26.9959 12.8365C26.9934 13.3333 26.6498 13.9802 26.1798 14.5644C25.4314 15.4936 24.4907 16.1723 23.5149 16.7997C23.4639 16.8324 23.361 16.8359 23.3117 16.8041C22.3158 16.1635 21.3533 15.4751 20.6007 14.5158C20.1425 13.9316 19.8155 13.2848 19.8239 12.4967C19.8448 10.6691 21.6702 9.49359 23.218 10.3178C23.3543 10.3911 23.4547 10.399 23.5951 10.3249C25.1655 9.48653 26.9851 10.6735 26.9959 12.8365ZM23.422 12.367C23.2113 12.1693 22.983 11.931 22.7322 11.7228C22.197 11.2789 21.4336 11.548 21.2421 12.239C21.1192 12.6803 21.2881 13.05 21.5197 13.3924C21.9997 14.102 22.6561 14.6067 23.3309 15.0868C23.371 15.1151 23.4697 15.1089 23.5082 15.0753C24.0392 14.6147 24.5802 14.1646 25.0819 13.6713C25.2809 13.4754 25.4122 13.1886 25.5334 12.923C25.6831 12.5955 25.643 12.2602 25.4515 11.9549C25.1413 11.4615 24.5233 11.3521 24.0885 11.7254C23.841 11.9381 23.616 12.179 23.422 12.367Z" fill="#4475F2"/>
</svg>
