<svg width="60" height="60" viewBox="0 0 60 60" fill="none" xmlns="http://www.w3.org/2000/svg">
<g clip-path="url(#clip0_798_9252)">
<path fill-rule="evenodd" clip-rule="evenodd" d="M30.0601 3.88672C21.0806 3.88672 13.8019 11.1654 13.8019 20.1449C13.8107 25.8227 16.7759 31.0428 21.5496 33.973C22.3149 34.4433 23.1191 35.4688 23.2954 36.3492L23.7369 38.5591C23.922 39.4833 24.7412 40.1549 25.6829 40.1549H34.4373C35.379 40.1549 36.1981 39.4833 36.3832 38.5591L36.8247 36.3492C37.001 35.4688 37.8052 34.4433 38.5706 33.9743C43.3442 31.0428 46.3094 25.8227 46.3182 20.1449C46.3182 11.1654 39.0396 3.88672 30.0601 3.88672Z" fill="white"/>
<path fill-rule="evenodd" clip-rule="evenodd" d="M23.6465 47.9463L36.4629 48.0113L35.3711 54.5621C35.1935 55.6264 34.2643 56.413 33.1862 56.413H26.9331C25.8551 56.413 24.9258 55.6264 24.7482 54.5621L23.6465 47.9463Z" fill="white"/>
<path fill-rule="evenodd" clip-rule="evenodd" d="M23.1814 45.1572H36.9382C37.2696 45.1572 37.5886 45.2885 37.8224 45.5236C38.0575 45.7575 38.1889 46.0764 38.1889 46.4078V47.6584C38.1889 48.345 37.6248 48.909 36.9382 48.909H23.1814C22.8499 48.909 22.531 48.7777 22.2972 48.5426C22.062 48.3087 21.9307 47.9898 21.9307 47.6584V46.4078C21.9307 45.7212 22.4948 45.1572 23.1814 45.1572Z" fill="white"/>
<path fill-rule="evenodd" clip-rule="evenodd" d="M30.0604 3.88672C26.9526 3.88672 24.4326 11.1654 24.4326 20.1449C24.4351 25.8227 25.4618 31.0428 27.1151 33.973C27.379 34.4433 27.6579 35.4688 27.7192 36.3492L27.8718 38.5591C27.9356 39.4833 28.2194 40.1549 28.5446 40.1549H31.5761C31.9013 40.1549 32.1852 39.4833 32.249 38.5591L32.4015 36.3492C32.4628 35.4688 32.7417 34.4433 33.0056 33.9743C34.6589 31.0428 35.6857 25.8227 35.6882 20.1449C35.6882 11.1654 33.1682 3.88672 30.0604 3.88672Z" fill="white"/>
<path fill-rule="evenodd" clip-rule="evenodd" d="M11.4736 38.6088C10.7932 38.0122 9.91528 37.6533 8.95605 37.6533C6.79747 37.6533 5.04785 39.473 5.04785 41.7178C5.04785 43.9627 6.79747 45.7824 8.95605 45.7824H14.4275C16.1546 45.7824 17.5541 44.3266 17.5541 42.5307C17.5541 40.7348 16.1546 39.2791 14.4275 39.2791C13.7597 39.2791 13.1394 39.4967 12.6316 39.8682L11.4736 38.6088Z" fill="white"/>
<path fill-rule="evenodd" clip-rule="evenodd" d="M51.8243 30.1309C52.3008 29.7132 52.9161 29.4619 53.5877 29.4619C55.0985 29.4619 56.3228 30.7363 56.3228 32.307C56.3228 33.8778 55.0985 35.1522 53.5877 35.1522H49.757C48.5489 35.1522 47.5684 34.1329 47.5684 32.8761C47.5684 31.6192 48.5489 30.5999 49.757 30.5999C50.2248 30.5999 50.6587 30.7525 51.0139 31.0126L51.8243 30.1309Z" fill="white"/>
<path fill-rule="evenodd" clip-rule="evenodd" d="M22.7419 50.1207L23.5161 54.768C23.7937 56.4314 25.2469 57.6632 26.934 57.6632H33.1871C34.8742 57.6632 36.3275 56.4314 36.6051 54.768L37.3792 50.1195C38.5448 49.9094 39.4403 48.8801 39.4403 47.6582V46.4076C39.4403 45.7448 39.1764 45.1082 38.7074 44.6392C38.2384 44.1702 37.6018 43.9064 36.939 43.9064H36.3137V40.8023C36.9665 40.3371 37.4443 39.633 37.6094 38.8038L38.0521 36.594C38.1684 36.0124 38.7199 35.3496 39.2252 35.0394C44.3665 31.8829 47.5606 26.2613 47.5693 20.147V20.1445C47.5693 10.4746 39.7304 2.63574 30.0606 2.63574C20.3907 2.63574 12.5518 10.4746 12.5518 20.1445V20.1457C12.5531 20.7135 12.5806 21.2751 12.6356 21.8328C12.7032 22.5194 13.3147 23.0222 14.0026 22.9546C14.6892 22.8871 15.1919 22.2756 15.1244 21.5877C15.0781 21.1112 15.0543 20.6297 15.0531 20.1432C15.0531 13.2548 19.6941 7.4519 26.0198 5.68727C24.344 8.69877 23.1821 14.0414 23.1821 20.1445V20.1457C23.1859 26.0787 24.299 31.5252 26.0248 34.5879C26.2312 34.9519 26.4238 35.7523 26.4713 36.4351L26.6239 38.645C26.6301 38.7338 26.6389 38.8201 26.6476 38.9039H25.6834C25.3345 38.9039 25.0318 38.6562 24.9643 38.3136L24.5228 36.1037C24.2864 34.9244 23.2297 33.5374 22.2042 32.9071C20.1344 31.6365 18.4323 29.8981 17.2092 27.8696C16.8527 27.278 16.0823 27.088 15.492 27.4444C14.9005 27.8008 14.7104 28.5699 15.0668 29.1615C16.4938 31.5277 18.4798 33.5562 20.896 35.0394C21.4012 35.3496 21.9528 36.0124 22.0691 36.594L22.5118 38.8038C22.6769 39.633 23.1546 40.3371 23.8075 40.8023V43.9064H23.1821C21.8102 43.9064 20.6809 45.0357 20.6809 46.4076V47.6582C20.6809 48.3211 20.9448 48.9576 21.4138 49.4266C21.7777 49.7905 22.2417 50.0307 22.7419 50.1207ZM34.838 50.1595H34.3965C33.7062 50.1595 33.1459 49.5992 33.1459 48.9089C33.1459 48.2185 33.7062 47.6582 34.3965 47.6582H36.939V46.5077C36.859 46.4876 36.7452 46.4076 36.939 46.4076H23.1821V47.5582C23.2622 47.5782 23.376 47.6582 23.1821 47.6582H30.3782C31.0673 47.6582 31.6289 48.2185 31.6289 48.9089C31.6289 49.5992 31.0673 50.1595 30.3782 50.1595H25.2832L25.9835 54.3566C26.0598 54.8193 26.465 55.162 26.934 55.162H33.1871C33.6561 55.162 34.0613 54.8193 34.1376 54.3566L34.838 50.1595ZM28.81 43.9064V41.4051H26.3087V43.9064H28.81ZM33.8125 43.9064V41.4051H31.3112V43.9064H33.8125ZM30.0606 5.13699C30.387 5.13699 30.6784 5.33459 30.9723 5.61723C31.44 6.06621 31.864 6.73153 32.2529 7.55695C33.5936 10.3946 34.4378 14.9781 34.4378 20.1445C34.4353 25.5672 33.4948 30.5597 31.9165 33.3586C31.5926 33.9351 31.2287 35.1832 31.1549 36.2625L31.001 38.4724C30.9923 38.61 30.9635 38.7663 30.9323 38.9039H29.1889C29.1576 38.7663 29.1289 38.61 29.1201 38.4724L28.9663 36.2625C28.8925 35.1832 28.5286 33.9351 28.2047 33.3586C26.6264 30.5597 25.6859 25.5672 25.6834 20.1445C25.6834 14.9781 26.5276 10.3946 27.8682 7.55695C28.2572 6.73153 28.6811 6.06621 29.1489 5.61723C29.4428 5.33459 29.7342 5.13699 30.0606 5.13699ZM34.1014 5.68727C35.7772 8.69877 36.939 14.0414 36.939 20.1445V20.1457C36.9365 26.0787 35.8222 31.5252 34.0963 34.5879C33.89 34.9519 33.6974 35.7523 33.6499 36.4351L33.4973 38.645C33.491 38.7338 33.4823 38.8201 33.4735 38.9039H34.4378C34.7867 38.9039 35.0893 38.6562 35.1569 38.3136L35.5984 36.1037C35.8347 34.9244 36.8915 33.5374 37.9158 32.9071C42.323 30.202 45.0593 25.3846 45.0681 20.1432C45.0681 13.256 40.427 7.4519 34.1014 5.68727Z" fill="#0066B3"/>
<path fill-rule="evenodd" clip-rule="evenodd" d="M12.3951 37.7638C12.3638 37.73 12.3325 37.6987 12.2988 37.6687C11.3958 36.8783 10.229 36.4031 8.95582 36.4031C6.12066 36.4031 3.797 38.7693 3.797 41.7182C3.797 44.6672 6.12066 47.0334 8.95582 47.0334H14.4273C16.831 47.0334 18.8045 45.0311 18.8045 42.5311C18.8045 40.0311 16.831 38.0289 14.4273 38.0289C13.8896 38.0289 13.3743 38.1289 12.8978 38.3115L12.3951 37.7638ZM10.6029 39.5096L11.711 40.7152C12.1412 41.1842 12.8553 41.2542 13.3693 40.8791C13.6695 40.6602 14.0334 40.5301 14.4273 40.5301C15.4779 40.5301 16.3033 41.4393 16.3033 42.5311C16.3033 43.6229 15.4779 44.5321 14.4273 44.5321H8.95582C7.47383 44.5321 6.29825 43.259 6.29825 41.7182C6.29825 40.1775 7.47383 38.9043 8.95582 38.9043C9.57738 38.9043 10.149 39.1307 10.5992 39.5071L10.6029 39.5096Z" fill="#0066B3"/>
<path fill-rule="evenodd" clip-rule="evenodd" d="M51.0005 29.1912L50.7166 29.4888C50.4127 29.3988 50.0901 29.35 49.7574 29.35C47.8715 29.35 46.3182 30.9158 46.3182 32.8768C46.3182 34.8378 47.8715 36.4035 49.7574 36.4035H53.5881C55.7754 36.4035 57.5738 34.5826 57.5738 32.3078C57.5738 30.0329 55.7754 28.2119 53.5881 28.2119C52.6026 28.2119 51.6984 28.5784 51.0005 29.1912ZM52.6964 31.0321C52.9427 30.8333 53.2516 30.7132 53.5881 30.7132C54.421 30.7132 55.0726 31.4398 55.0726 32.3078C55.0726 33.1757 54.421 33.9023 53.5881 33.9023H49.7574C49.2259 33.9023 48.8194 33.4296 48.8194 32.8768C48.8194 32.324 49.2259 31.8513 49.7574 31.8513C49.9512 31.8513 50.1301 31.915 50.2764 32.0226C50.7904 32.399 51.5045 32.3278 51.936 31.86L52.6926 31.0346L52.6964 31.0321Z" fill="#0066B3"/>
<path d="M14.5951 26.3585C15.2861 26.3585 15.8462 25.7983 15.8462 25.1073C15.8462 24.4163 15.2861 23.8562 14.5951 23.8562C13.9041 23.8562 13.3439 24.4163 13.3439 25.1073C13.3439 25.7983 13.9041 26.3585 14.5951 26.3585Z" fill="#0066B3"/>
</g>
<defs>
<clipPath id="clip0_798_9252">
<rect width="60" height="60" fill="white"/>
</clipPath>
</defs>
</svg>
