<svg width="60" height="60" viewBox="0 0 60 60" fill="none" xmlns="http://www.w3.org/2000/svg">
<g clip-path="url(#clip0_798_9289)">
<path d="M38.7675 31.7463V55.0716C38.7675 56.0691 37.6453 56.6926 36.7725 56.0691L30.0394 51.2063L23.3063 56.0691C22.4335 56.6926 21.3113 56.0691 21.3113 55.0716V31.7463H38.7675Z" fill="white"/>
<path d="M30.0394 38.7374C39.6802 38.7374 47.4956 30.922 47.4956 21.2812C47.4956 11.6403 39.6802 3.82495 30.0394 3.82495C20.3986 3.82495 12.5831 11.6403 12.5831 21.2812C12.5831 30.922 20.3986 38.7374 30.0394 38.7374Z" fill="white"/>
<path d="M31.2863 12.8026L32.5332 16.6679C32.6579 17.1666 33.1566 17.5407 33.7801 17.5407H37.7701C39.017 17.5407 39.5157 19.037 38.5182 19.7851L35.2763 22.1542C34.7776 22.5282 34.6529 23.027 34.7776 23.5257L36.0244 27.391C36.3985 28.5132 35.0269 29.5107 34.1541 28.7626L30.9123 26.3935C30.4135 26.0195 29.9148 26.0195 29.416 26.3935L26.1741 28.7626C25.1766 29.5107 23.9297 28.5132 24.3038 27.391L25.5507 23.5257C25.6754 23.027 25.5507 22.4036 25.0519 22.1542L21.8101 19.7851C20.8126 19.037 21.3113 17.5407 22.5582 17.5407H26.5482C27.047 17.5407 27.5457 17.1666 27.7951 16.6679L29.042 12.8026C29.1666 11.6804 30.9123 11.6804 31.2863 12.8026Z" fill="white"/>
<path d="M13.293 27.5104C13.9832 27.5104 14.5428 26.9508 14.5428 26.2605C14.5428 25.5703 13.9832 25.0107 13.293 25.0107C12.6027 25.0107 12.0431 25.5703 12.0431 26.2605C12.0431 26.9508 12.6027 27.5104 13.293 27.5104Z" fill="#0066B3"/>
<path fill-rule="evenodd" clip-rule="evenodd" d="M20.2558 37.3076C17.5345 35.5867 15.2871 33.1855 13.7538 30.3416C13.4262 29.735 13.6538 28.9759 14.2616 28.6482C14.8694 28.3206 15.6285 28.5469 15.9562 29.1547C18.6963 34.236 24.0665 37.6915 30.2396 37.6915C39.1903 37.6915 46.4564 30.4254 46.4564 21.4759C46.4564 17.3826 44.9369 13.642 42.4306 10.7868C41.9754 10.2691 42.028 9.47742 42.5457 9.02219C43.0647 8.56696 43.8564 8.61825 44.3116 9.13726C47.2031 12.4327 48.9577 16.7511 48.9577 21.4759C48.9577 28.1368 45.4697 33.9897 40.2233 37.3076V50.2503C40.2233 50.9406 39.663 51.5009 38.9727 51.5009C38.2823 51.5009 37.7221 50.9406 37.7221 50.2503V38.6358C35.4309 39.6375 32.8996 40.1928 30.2396 40.1928C27.5795 40.1928 25.0482 39.6375 22.7571 38.6358V55.2866C22.7571 55.2791 22.7696 55.269 22.7759 55.2665L29.508 50.4054C29.9444 50.089 30.5347 50.089 30.9712 50.4054C30.9712 50.4054 37.7095 55.2716 37.7033 55.2678C37.7145 55.2753 37.7221 55.2991 37.7221 55.2866V54.0022C37.7221 53.3118 38.2823 52.7516 38.9727 52.7516C39.663 52.7516 40.2233 53.3118 40.2233 54.0022V55.2866C40.2233 57.2801 37.9934 58.5482 36.2501 57.3026L36.2451 57.2988L30.2396 52.9617L24.2341 57.2988L24.2291 57.3026C22.4857 58.5482 20.2558 57.2801 20.2558 55.2866V37.3076ZM14.0652 22.6477C14.114 23.3356 13.595 23.9347 12.9071 23.9834C12.2181 24.0335 11.619 23.5145 11.5702 22.8254C11.5377 22.3801 11.5215 21.9299 11.5215 21.4759C11.5215 11.1445 19.9094 2.75781 30.2396 2.75781C34.2266 2.75781 37.9247 4.00721 40.9624 6.13577C41.5277 6.53097 41.6653 7.31136 41.2688 7.87664C40.8724 8.44192 40.092 8.57949 39.5267 8.18429C36.8954 6.34087 33.6925 5.25906 30.2396 5.25906C21.2888 5.25906 14.0227 12.5252 14.0227 21.4759C14.0227 21.8699 14.0377 22.26 14.0652 22.6477ZM26.7065 16.4822C26.7278 16.4647 26.7979 16.4059 26.8454 16.3459C26.8454 16.3459 28.0185 12.7078 28.0185 12.7128C28.1785 11.756 28.8551 11.1645 29.688 10.9669C30.8123 10.6993 32.2281 11.2571 32.6758 12.6015L33.9239 16.4722C33.9414 16.4772 33.9652 16.4822 33.9827 16.4822H37.9747C39.2153 16.4822 40.0682 17.2488 40.3784 18.1793C40.6885 19.1097 40.4659 20.234 39.4679 20.9832C39.4679 20.9832 36.2276 23.3506 36.2201 23.3569C36.2051 23.3706 36.1938 23.3856 36.1926 23.4044C36.1926 23.4044 37.4182 27.205 37.4144 27.1938C37.7908 28.3206 37.3118 29.3924 36.4977 29.9864C35.656 30.6017 34.4967 30.6968 33.5862 29.9476L30.3684 27.5965L30.3646 27.5927L30.3596 27.5965L27.1117 29.9689C25.0882 31.4734 22.5557 29.4674 23.3099 27.205C23.3099 27.205 24.538 23.3994 24.538 23.3944C24.5392 23.3894 24.5392 23.3844 24.5392 23.3794L21.2613 20.9832L21.2551 20.9794C20.2621 20.2341 20.0407 19.1097 20.3509 18.1793C20.661 17.2488 21.5127 16.4822 22.7533 16.4822H26.7065ZM22.7633 18.9834C22.9484 19.1197 25.9212 21.2908 25.9162 21.2883C26.8679 21.8349 27.2105 23.0279 26.9617 24.0247L26.9517 24.0647L25.7173 27.8916C26.2388 27.5102 28.8751 25.583 28.8751 25.583C29.3679 25.2165 29.8706 25.059 30.3646 25.059C30.8574 25.059 31.3601 25.2165 31.8541 25.583L35.012 27.8904L33.7776 24.0647L33.7676 24.0247C33.525 23.053 33.7576 22.0775 34.7356 21.3433C34.7356 21.3433 37.6883 19.186 37.9647 18.9834H33.9827C32.7471 18.9834 31.8004 18.1893 31.534 17.2113L30.3646 13.5845L29.1553 17.3338L29.1128 17.4189C28.6475 18.3481 27.6758 18.9834 26.7466 18.9834H22.7633Z" fill="#0066B3"/>
</g>
<defs>
<clipPath id="clip0_798_9289">
<rect width="60" height="60" fill="white"/>
</clipPath>
</defs>
</svg>
