<svg width="20" height="18" viewBox="0 0 20 18" fill="none" xmlns="http://www.w3.org/2000/svg">
<path d="M19.82 1.00215L19.34 4.42215C18.38 4.34215 17.6 4.50215 17 4.90215C16.4 5.28215 15.98 5.84215 15.74 6.58215C15.52 7.30215 15.48 8.14215 15.62 9.10215H19.82V17.2621H11.66V9.10215C11.66 6.22215 12.33 4.04215 13.67 2.56215C15.01 1.06215 17.06 0.542147 19.82 1.00215ZM8.96 1.00215L8.48 4.42215C7.52 4.34215 6.74 4.50215 6.14 4.90215C5.54 5.28215 5.12 5.84215 4.88 6.58215C4.66 7.30215 4.62 8.14215 4.76 9.10215H8.96V17.2621H0.8V9.10215C0.8 6.22215 1.47 4.04215 2.81 2.56215C4.15 1.06215 6.2 0.542147 8.96 1.00215Z" fill="#0066B3"/>
</svg>
