<svg width="32" height="32" viewBox="0 0 32 32" fill="none" xmlns="http://www.w3.org/2000/svg">
<path d="M16.6654 23.9997C16.6654 24.3679 16.3669 24.6663 15.9987 24.6663C15.6305 24.6663 15.332 24.3679 15.332 23.9997C15.332 23.6315 15.6305 23.333 15.9987 23.333C16.3669 23.333 16.6654 23.6315 16.6654 23.9997Z" stroke="black"/>
<path d="M12.668 19.4166C13.6034 18.7351 14.7554 18.333 16.0013 18.333C17.2472 18.333 18.3992 18.7351 19.3346 19.4166" stroke="black" stroke-width="1.5" stroke-linecap="round" stroke-linejoin="round"/>
<path d="M22.2857 14.9701C20.5044 13.7282 18.3383 13 16.0022 13C13.6661 13 11.5001 13.7282 9.71875 14.9701" stroke="black" stroke-width="1.5" stroke-linecap="round" stroke-linejoin="round"/>
<path d="M6.66797 10.5946C9.31358 8.74923 12.5311 7.66699 16.0013 7.66699C19.4715 7.66699 22.689 8.74923 25.3346 10.5946" stroke="black" stroke-width="1.5" stroke-linecap="round" stroke-linejoin="round"/>
</svg>
