<svg width="46" height="45" viewBox="0 0 46 45" fill="none" xmlns="http://www.w3.org/2000/svg">
<circle cx="23.1421" cy="22.5" r="22.5" fill="white"/>
<mask id="mask0_801_7447" style="mask-type:luminance" maskUnits="userSpaceOnUse" x="10" y="10" width="26" height="26">
<path d="M35.2298 10H10.6421V35.949H35.2298V10Z" fill="white"/>
</mask>
<g mask="url(#mask0_801_7447)">
<path d="M30.2592 14.815H29.0586V11.7734C29.0586 11.2059 28.7984 10.6686 28.3627 10.336C27.927 10.0035 27.362 9.91103 26.8513 10.0888L15.0857 14.1842C14.3952 14.4246 13.9314 15.1016 13.9314 15.8688V30.0361V34.1751C13.9314 35.1532 14.6854 35.949 15.6122 35.949H30.2592C31.186 35.949 31.9399 35.1532 31.9399 34.1751V16.5888C31.9399 15.6108 31.186 14.815 30.2592 14.815ZM30.4993 34.1751C30.4993 34.3148 30.3916 34.4285 30.2592 34.4285H15.6122C15.4798 34.4285 15.3721 34.3148 15.3721 34.1751V29.2759V16.5888C15.3721 16.4491 15.4798 16.3354 15.6122 16.3354H30.2592C30.3916 16.3354 30.4993 16.4491 30.4993 16.5888V34.1751ZM27.3026 11.5327C27.404 11.4975 27.4814 11.5397 27.5185 11.5681C27.5556 11.5964 27.618 11.6607 27.618 11.7734V14.815H17.873L27.3026 11.5327Z" fill="#4475F2"/>
<path d="M18.1337 25.1277H19.0069H27.7383C28.1361 25.1277 28.4586 24.7874 28.4586 24.3675C28.4586 23.9477 28.1361 23.6073 27.7383 23.6073H27.5296C27.2191 21.5092 25.6444 19.8473 23.6563 19.5196V19.1387C23.6563 18.7188 23.3338 18.3784 22.936 18.3784C22.5381 18.3784 22.2156 18.7188 22.2156 19.1387V19.5196C20.2276 19.8473 18.6529 21.5092 18.3424 23.6073H18.1337C17.7359 23.6073 17.4133 23.9477 17.4133 24.3675C17.4133 24.7874 17.7359 25.1277 18.1337 25.1277ZM22.936 20.981C24.4577 20.981 25.7354 22.1049 26.0633 23.6073H19.8087C20.1365 22.1049 21.4143 20.981 22.936 20.981Z" fill="#4475F2"/>
<path d="M18.4127 27.1816C18.0149 27.1816 17.6924 27.522 17.6924 27.9419C17.6924 28.3617 18.0149 28.7021 18.4127 28.7021H21.8704C22.2682 28.7021 22.5907 28.3617 22.5907 27.9419C22.5907 27.522 22.2682 27.1816 21.8704 27.1816H18.4127Z" fill="#4475F2"/>
<path d="M27.5581 30.2227H18.3137C17.9159 30.2227 17.5934 30.563 17.5934 30.9829C17.5934 31.4028 17.9159 31.7431 18.3137 31.7431H27.5581C27.9559 31.7431 28.2785 31.4028 28.2785 30.9829C28.2785 30.563 27.9559 30.2227 27.5581 30.2227Z" fill="#4475F2"/>
</g>
</svg>
