<svg width="24" height="24" viewBox="0 0 24 24" fill="none" xmlns="http://www.w3.org/2000/svg">
<circle cx="12" cy="12" r="12" fill="#E6E8E8"/>
<g clip-path="url(#clip0_1197_1640)">
<path d="M13.0851 8.82353C13.6022 8.92442 14.0774 9.17732 14.45 9.54985C14.8225 9.92239 15.0754 10.3976 15.1763 10.9147M13.0851 6.70589C14.1594 6.82524 15.1612 7.30633 15.926 8.07018C16.6909 8.83404 17.1732 9.83524 17.2939 10.9094M11.0611 12.9863C10.425 12.3502 9.92272 11.6309 9.55425 10.8635C9.52255 10.7975 9.50671 10.7645 9.49453 10.7227C9.45126 10.5743 9.48234 10.392 9.57235 10.2663C9.59768 10.2309 9.62793 10.2007 9.68845 10.1402C9.87354 9.95508 9.96608 9.86254 10.0266 9.76948C10.2548 9.41854 10.2548 8.96612 10.0266 8.61517C9.96608 8.52212 9.87354 8.42957 9.68845 8.24449L9.58529 8.14132C9.30393 7.85997 9.16326 7.71929 9.01217 7.64288C8.7117 7.4909 8.35686 7.4909 8.05638 7.64288C7.9053 7.71929 7.76462 7.85997 7.48327 8.14132L7.39982 8.22477C7.11943 8.50516 6.97923 8.64536 6.87216 8.83596C6.75335 9.04747 6.66792 9.37596 6.66864 9.61855C6.66929 9.83717 6.7117 9.98658 6.79652 10.2854C7.25233 11.8913 8.11234 13.4067 9.37657 14.6709C10.6408 15.9351 12.1562 16.7952 13.7621 17.251C14.0609 17.3358 14.2103 17.3782 14.4289 17.3788C14.6715 17.3796 15 17.2941 15.2115 17.1753C15.4021 17.0682 15.5423 16.9281 15.8227 16.6477L15.9062 16.5642C16.1875 16.2829 16.3282 16.1422 16.4046 15.9911C16.5566 15.6906 16.5566 15.3358 16.4046 15.0353C16.3282 14.8842 16.1875 14.7435 15.9062 14.4622L15.803 14.359C15.6179 14.1739 15.5254 14.0814 15.4323 14.0209C15.0814 13.7927 14.6289 13.7927 14.278 14.0209C14.1849 14.0814 14.0924 14.1739 13.9073 14.359C13.8468 14.4195 13.8165 14.4498 13.7812 14.4751C13.6555 14.5651 13.4732 14.5962 13.3248 14.5529C13.283 14.5408 13.25 14.5249 13.184 14.4932C12.4166 14.1248 11.6973 13.6225 11.0611 12.9863Z" stroke="#6A7373" stroke-width="1.3" stroke-linecap="round" stroke-linejoin="round"/>
</g>
<defs>
<clipPath id="clip0_1197_1640">
<rect width="12.7059" height="12.7059" fill="white" transform="translate(5.64703 5.64706)"/>
</clipPath>
</defs>
</svg>
