<svg width="45" height="44" viewBox="0 0 45 44" fill="none" xmlns="http://www.w3.org/2000/svg">
<rect width="44" height="44" rx="22" transform="matrix(-1 0 0 1 44.5 0)" fill="white"/>
<path d="M24.001 28.0888C23.7701 27.858 23.6593 27.579 23.6685 27.252C23.6777 26.9249 23.7982 26.6459 24.0298 26.4151L27.2908 23.1541H14.4201C14.093 23.1541 13.8187 23.0433 13.5971 22.8217C13.3754 22.6 13.265 22.3261 13.2658 21.9998C13.2658 21.6727 13.3766 21.3984 13.5982 21.1768C13.8198 20.9551 14.0938 20.8447 14.4201 20.8455H27.2908L24.001 17.5557C23.7701 17.3248 23.6547 17.0504 23.6547 16.7326C23.6547 16.4148 23.7701 16.1408 24.001 15.9107C24.2318 15.6799 24.5062 15.5645 24.824 15.5645C25.1418 15.5645 25.4158 15.6799 25.6459 15.9107L30.9269 21.1918C31.0423 21.3072 31.1243 21.4323 31.1728 21.5669C31.2212 21.7016 31.2451 21.8459 31.2443 21.9998C31.2443 22.1537 31.2201 22.298 31.1716 22.4327C31.1231 22.5673 31.0415 22.6924 30.9269 22.8078L25.617 28.1177C25.4054 28.3293 25.141 28.4351 24.824 28.4351C24.5069 28.4351 24.2326 28.3197 24.001 28.0888Z" fill="#071516"/>
</svg>
