<svg width="25" height="25" viewBox="0 0 25 25" fill="none" xmlns="http://www.w3.org/2000/svg">
<path d="M1.25916 11.4259C1.36666 11.1398 1.58023 10.9881 1.86708 10.8953C2.31197 10.7514 2.75132 10.5882 3.18598 10.4155C3.49705 10.2919 3.75463 10.348 4.00603 10.5579C4.47648 10.9507 4.95394 11.3352 5.4355 11.7142C5.49501 11.761 5.61027 11.7904 5.67764 11.7662C7.06704 11.2686 8.45331 10.7621 9.83994 10.2566C9.87244 10.2448 9.90199 10.2249 9.95444 10.1976C9.45495 9.83769 8.97154 9.48891 8.48767 9.14082C7.94926 8.75353 7.41316 8.36299 6.87065 7.98148C6.62423 7.80822 6.48884 7.59112 6.53783 7.28513C6.58426 6.99511 6.78037 6.84521 7.04292 6.75089C7.97106 6.41737 8.89908 6.08322 9.82299 5.73809C10.0854 5.64006 10.3186 5.65209 10.5691 5.77701C12.1352 6.55813 13.7064 7.32891 15.2719 8.11125C15.4234 8.18695 15.5471 8.18262 15.6991 8.1308C16.5296 7.84748 17.3482 7.5101 18.1989 7.30994C19.6256 6.97417 21.0246 7.16889 22.35 7.79486C23.0787 8.13901 23.4503 8.74815 23.4133 9.55102C23.3763 10.3528 22.953 10.9256 22.1973 11.2067C20.5038 11.8367 18.803 12.4472 17.1056 13.0665C16.8217 13.17 16.4779 13.2119 16.2738 13.4023C16.0701 13.5923 16.0041 13.9319 15.8826 14.2081C15.3494 15.421 14.8148 16.6333 14.2884 17.8492C14.1777 18.1051 14.0097 18.2676 13.7444 18.3615C12.8147 18.6906 11.8893 19.0318 10.9637 19.3723C10.6942 19.4715 10.4393 19.4785 10.214 19.2782C9.98064 19.0709 9.96665 18.8124 10.0411 18.5251C10.2978 17.5354 10.5461 16.5435 10.797 15.5524C10.8108 15.4983 10.8194 15.4429 10.8374 15.3531C10.6648 15.4132 10.5189 15.462 10.3744 15.5146C9.26486 15.9181 8.15635 16.3246 7.04593 16.7257C5.03288 17.4531 3.02237 16.5124 2.28468 14.4997C1.95758 13.6074 1.63298 12.7142 1.30658 11.8218C1.29472 11.7893 1.27517 11.7597 1.25921 11.7288C1.25916 11.6279 1.25916 11.5269 1.25916 11.4259ZM2.75103 11.9639C2.77624 12.0432 2.79544 12.1116 2.81962 12.1782C3.04834 12.8074 3.27377 13.4379 3.50978 14.0644C3.58039 14.2519 3.6632 14.4395 3.77094 14.6076C4.37378 15.5481 5.48252 15.9063 6.579 15.5118C8.19793 14.9291 9.81449 14.3398 11.43 13.7477C11.7136 13.6438 11.9793 13.6175 12.2192 13.8324C12.4604 14.0486 12.458 14.3178 12.3824 14.6088C12.1292 15.5845 11.8833 16.5621 11.6355 17.5393C11.6195 17.6024 11.6102 17.6672 11.5922 17.7596C12.0795 17.5832 12.5293 17.4301 12.9697 17.2537C13.0746 17.2118 13.185 17.1084 13.2308 17.0055C13.8633 15.5846 14.4889 14.1606 15.1054 12.7327C15.2233 12.4596 15.4035 12.2989 15.6823 12.1987C17.6739 11.4824 19.6614 10.7546 21.651 10.0327C21.9159 9.93658 22.1134 9.78373 22.1198 9.48093C22.1263 9.17859 21.937 9.02024 21.676 8.90973C20.2936 8.32419 18.9104 8.33124 17.5063 8.84548C13.5856 10.2814 9.65956 11.703 5.73715 13.1343C5.44262 13.2418 5.19487 13.2036 4.95417 13.0039C4.47695 12.608 3.98897 12.2251 3.51203 11.8288C3.41441 11.7477 3.33287 11.7357 3.22207 11.7832C3.07107 11.848 2.9151 11.9016 2.75103 11.9639ZM13.7744 8.82437C13.6691 8.76885 13.6026 8.73201 13.5347 8.69835C12.5874 8.229 11.6283 7.78156 10.6978 7.28097C10.2956 7.06462 9.94866 7.01095 9.53615 7.21932C9.23542 7.37124 8.90284 7.46019 8.55296 7.5888C9.50995 8.27694 10.4314 8.94223 11.3586 9.59948C11.4137 9.63858 11.5221 9.63661 11.5927 9.61371C11.8797 9.5206 12.1617 9.41205 12.4454 9.30877C12.8759 9.15204 13.3063 8.99497 13.7744 8.82437Z" fill="#9CA1A2"/>
</svg>
