<svg width="38" height="38" viewBox="0 0 38 38" fill="none" xmlns="http://www.w3.org/2000/svg">
<circle cx="18.7129" cy="19" r="18.5" fill="white"/>
<path d="M24.2136 17.3342L20.8802 14.0009M11.2969 26.9176L14.1172 26.6042C14.4618 26.5659 14.634 26.5468 14.7951 26.4946C14.938 26.4484 15.0739 26.383 15.1993 26.3004C15.3406 26.2072 15.4632 26.0846 15.7083 25.8395L26.7136 14.8342C27.634 13.9138 27.634 12.4214 26.7136 11.5009C25.7931 10.5804 24.3007 10.5804 23.3802 11.5009L12.375 22.5061C12.1298 22.7513 12.0073 22.8739 11.9141 23.0152C11.8314 23.1405 11.7661 23.2765 11.7198 23.4194C11.6677 23.5804 11.6485 23.7527 11.6102 24.0973L11.2969 26.9176Z" stroke="#0066B3" stroke-width="2" stroke-linecap="round" stroke-linejoin="round"/>
</svg>
