<svg width="21" height="22" viewBox="0 0 21 22" fill="none" xmlns="http://www.w3.org/2000/svg">
<mask id="mask0_2078_15868" style="mask-type:luminance" maskUnits="userSpaceOnUse" x="0" y="1" width="21" height="20">
<path d="M16.6241 18.8752L18.1072 14.7955C18.1806 14.5939 18.1773 14.3722 18.0979 14.1728C18.0185 13.9734 17.8686 13.8101 17.6767 13.714L10.8902 10.3208C10.7688 10.2601 10.6349 10.2285 10.4991 10.2285C10.3633 10.2285 10.2294 10.2601 10.108 10.3208L3.32147 13.714C3.12949 13.8101 2.9795 13.9733 2.90004 14.1727C2.82059 14.3721 2.8172 14.5938 2.89054 14.7955L4.3741 18.8752" stroke="white" stroke-width="2" stroke-linejoin="round"/>
<path d="M15.3125 6.625H5.6875C5.45544 6.625 5.23288 6.71719 5.06878 6.88128C4.90469 7.04538 4.8125 7.26794 4.8125 7.5V12.75L10.1334 10.2943C10.2483 10.2413 10.3734 10.2138 10.5 10.2138C10.6266 10.2138 10.7517 10.2413 10.8666 10.2943L16.1875 12.75V7.5C16.1875 7.26794 16.0953 7.04538 15.9312 6.88128C15.7671 6.71719 15.5446 6.625 15.3125 6.625Z" fill="white" stroke="white" stroke-width="2" stroke-linecap="round" stroke-linejoin="round"/>
<path d="M12.6875 6.625V3.125C12.6875 2.89294 12.5953 2.67038 12.4312 2.50628C12.2671 2.34219 12.0446 2.25 11.8125 2.25H9.1875C8.95544 2.25 8.73288 2.34219 8.56878 2.50628C8.40469 2.67038 8.3125 2.89294 8.3125 3.125V6.625" stroke="white" stroke-width="2" stroke-linecap="round" stroke-linejoin="round"/>
<path d="M10.5 14.5V18" stroke="white" stroke-width="2" stroke-linecap="round"/>
<path d="M1.75 19.75C3.5 19.75 3.5 18.875 4.8125 18.875C6.125 18.875 6.125 19.75 7.4375 19.75C8.75 19.75 8.96875 18.875 10.5 18.875C12.0312 18.875 12.25 19.75 13.5625 19.75C14.875 19.75 14.875 18.875 16.1875 18.875C17.5 18.875 17.5 19.75 19.25 19.75" stroke="white" stroke-width="2" stroke-linecap="round" stroke-linejoin="round"/>
</mask>
<g mask="url(#mask0_2078_15868)">
<path d="M0 0.5H21V21.5H0V0.5Z" fill="#9CA1A2"/>
</g>
</svg>
