<svg width="749" height="51" viewBox="0 0 749 51" fill="none" xmlns="http://www.w3.org/2000/svg">
<path d="M0.0920002 49V1.4H6.212V24.52H33.548V1.4H39.668V49H33.548V25.88H6.212V49H0.0920002ZM48.9373 49L68.2493 1.4H76.2053L95.5173 49H89.0573L83.0733 34.312H61.2453L55.2613 49H48.9373ZM61.7893 33.02H82.5293L72.1933 7.792L61.7893 33.02ZM104.748 49V1.4H110.868V43.084H135.96V49H104.748ZM166.725 50.02C162.056 50.02 157.84 48.9547 154.077 46.824C150.314 44.648 147.345 41.6787 145.169 37.916C143.038 34.108 141.973 29.8693 141.973 25.2C141.973 20.5307 143.038 16.3147 145.169 12.552C147.345 8.744 150.314 5.77467 154.077 3.644C157.84 1.468 162.056 0.379998 166.725 0.379998C171.394 0.379998 175.61 1.468 179.373 3.644C183.136 5.77467 186.082 8.744 188.213 12.552C190.344 16.3147 191.409 20.5307 191.409 25.2C191.409 29.8693 190.344 34.108 188.213 37.916C186.082 41.6787 183.136 44.648 179.373 46.824C175.61 48.9547 171.394 50.02 166.725 50.02ZM166.725 43.968C170.216 43.968 173.366 43.1747 176.177 41.588C178.988 39.956 181.186 37.712 182.773 34.856C184.405 31.9547 185.221 28.736 185.221 25.2C185.221 21.664 184.405 18.468 182.773 15.612C181.186 12.7107 178.988 10.444 176.177 8.812C173.366 7.18 170.216 6.364 166.725 6.364C163.234 6.364 160.084 7.18 157.273 8.812C154.462 10.444 152.264 12.7107 150.677 15.612C149.09 18.468 148.297 21.664 148.297 25.2C148.297 28.736 149.09 31.9547 150.677 34.856C152.264 37.712 154.462 39.956 157.273 41.588C160.084 43.1747 163.234 43.968 166.725 43.968ZM203.096 49V1.4H209.42L237.912 46.348V1.4H244.032V49H237.776L209.216 4.052V49H203.096ZM278.304 50.02C273.998 50.02 270.122 48.9773 266.676 46.892C263.231 44.8067 260.534 41.8827 258.584 38.12C256.635 34.3573 255.66 30.0507 255.66 25.2C255.66 20.44 256.703 16.1787 258.788 12.416C260.919 8.65333 263.82 5.70666 267.492 3.576C271.21 1.44533 275.403 0.379998 280.072 0.379998C284.016 0.379998 287.598 1.15066 290.816 2.692C294.08 4.188 296.755 6.31867 298.84 9.084C300.971 11.8493 302.376 15.068 303.056 18.74H296.596C295.735 14.8413 293.831 11.7813 290.884 9.56C287.983 7.29333 284.424 6.16 280.208 6.16C276.672 6.16 273.499 6.976 270.688 8.608C267.923 10.24 265.77 12.5067 264.228 15.408C262.687 18.3093 261.916 21.6187 261.916 25.336C261.916 29.0987 262.687 32.4533 264.228 35.4C265.815 38.3013 268.014 40.5907 270.824 42.268C273.635 43.9 276.831 44.716 280.412 44.716C283.767 44.716 286.782 43.9453 289.456 42.404C292.176 40.8627 294.284 38.7547 295.78 36.08C297.322 33.36 298.092 30.3 298.092 26.9V25.88H280.956V24.52H303.396V49H298.092V32.952C297.05 38.2107 294.76 42.3813 291.224 45.464C287.734 48.5013 283.427 50.02 278.304 50.02ZM333.717 49V1.4H353.369C358.22 1.4 362.028 2.488 364.793 4.664C367.558 6.84 368.941 9.832 368.941 13.64C368.941 16.4507 368.148 18.8307 366.561 20.78C365.02 22.684 362.798 24.0213 359.897 24.792V25.132C363.297 25.812 365.926 27.172 367.785 29.212C369.689 31.252 370.641 33.768 370.641 36.76C370.641 39.2533 370.006 41.4293 368.737 43.288C367.513 45.1013 365.745 46.5067 363.433 47.504C361.121 48.5013 358.424 49 355.341 49H333.717ZM353.437 43.22C356.792 43.22 359.444 42.4493 361.393 40.908C363.342 39.3213 364.317 37.1907 364.317 34.516C364.317 31.8413 363.32 29.7333 361.325 28.192C359.33 26.6507 356.701 25.88 353.437 25.88H339.837V43.22H353.437ZM351.941 24.52C355.296 24.52 357.948 23.7493 359.897 22.208C361.846 20.6213 362.821 18.4907 362.821 15.816C362.821 13.1413 361.846 11.0333 359.897 9.492C357.948 7.95067 355.296 7.18 351.941 7.18H339.837V24.52H351.941ZM375.058 49L394.37 1.4H402.326L421.638 49H415.178L409.194 34.312H387.366L381.382 49H375.058ZM387.91 33.02H408.65L398.314 7.792L387.91 33.02ZM439.599 49V31.32L419.199 1.4H426.407L442.863 25.608L459.115 1.4H466.051L445.719 31.32V49H439.599ZM511.9 50.02C507.185 50.02 502.969 48.9547 499.252 46.824C495.535 44.6933 492.611 41.7467 490.48 37.984C488.395 34.2213 487.352 29.96 487.352 25.2C487.352 20.44 488.395 16.1787 490.48 12.416C492.611 8.65333 495.535 5.70666 499.252 3.576C502.969 1.44533 507.185 0.379998 511.9 0.379998C515.935 0.379998 519.607 1.21866 522.916 2.896C526.271 4.528 528.991 6.84 531.076 9.832C533.161 12.824 534.431 16.2693 534.884 20.168H528.696C528.197 17.3573 527.177 14.932 525.636 12.892C524.095 10.8067 522.145 9.19733 519.788 8.064C517.431 6.93066 514.779 6.364 511.832 6.364C508.296 6.364 505.145 7.15733 502.38 8.744C499.615 10.3307 497.461 12.552 495.92 15.408C494.424 18.264 493.676 21.528 493.676 25.2C493.676 28.8267 494.424 32.068 495.92 34.924C497.461 37.78 499.615 40.0013 502.38 41.588C505.145 43.1747 508.296 43.968 511.832 43.968C514.779 43.968 517.431 43.424 519.788 42.336C522.145 41.2027 524.095 39.616 525.636 37.576C527.177 35.4907 528.197 33.0427 528.696 30.232H534.884C534.431 34.1307 533.161 37.576 531.076 40.568C528.991 43.56 526.271 45.8947 522.916 47.572C519.607 49.204 515.935 50.02 511.9 50.02ZM546.549 49V1.4H561.849C567.516 1.4 571.958 2.624 575.177 5.072C578.441 7.47466 580.073 10.784 580.073 15C580.073 18.4453 579.008 21.3013 576.877 23.568C574.746 25.8347 571.777 27.308 567.969 27.988L584.425 49H577.421L561.373 28.532C561.146 28.5773 560.897 28.6 560.625 28.6C560.398 28.6 560.172 28.6 559.945 28.6H552.601V49H546.549ZM561.237 27.24C565.181 27.24 568.286 26.3333 570.553 24.52C572.82 22.6613 573.953 20.168 573.953 17.04C573.953 13.8667 572.82 11.3733 570.553 9.56C568.286 7.74667 565.181 6.84 561.237 6.84H552.601V27.24H561.237ZM613.152 50.02C608.981 50.02 605.332 49.136 602.204 47.368C599.076 45.6 596.628 43.1067 594.86 39.888C593.137 36.624 592.276 32.816 592.276 28.464V1.4H598.464V28.192C598.464 31.456 599.053 34.2893 600.232 36.692C601.411 39.0493 603.111 40.8853 605.332 42.2C607.553 43.4693 610.16 44.104 613.152 44.104C616.235 44.104 618.864 43.4693 621.04 42.2C623.261 40.8853 624.961 39.0493 626.14 36.692C627.319 34.2893 627.908 31.456 627.908 28.192V1.4H634.028V28.464C634.028 32.816 633.167 36.624 631.444 39.888C629.767 43.1067 627.341 45.6 624.168 47.368C621.04 49.136 617.368 50.02 613.152 50.02ZM649.08 49V1.4H655.2V49H649.08ZM687.305 50.02C683.225 50.02 679.621 49.3173 676.493 47.912C673.365 46.4613 670.871 44.4213 669.013 41.792C667.199 39.1627 666.134 36.1253 665.817 32.68H671.869C672.231 35.1733 673.047 37.3267 674.317 39.14C675.586 40.9533 677.286 42.3813 679.417 43.424C681.593 44.4213 684.109 44.92 686.965 44.92C691.045 44.92 694.218 44.1267 696.485 42.54C698.751 40.908 699.885 38.6187 699.885 35.672C699.885 33.5413 699.227 31.8187 697.913 30.504C696.643 29.144 694.921 28.1013 692.745 27.376C690.614 26.6507 687.849 25.9707 684.449 25.336H684.381C680.799 24.656 677.807 23.8853 675.405 23.024C673.047 22.1627 671.143 20.9387 669.693 19.352C668.242 17.7653 667.517 15.7027 667.517 13.164C667.517 10.58 668.265 8.336 669.761 6.432C671.302 4.48266 673.41 2.98666 676.085 1.944C678.805 0.901331 681.887 0.379998 685.333 0.379998C689.277 0.379998 692.722 1.08266 695.669 2.488C698.661 3.848 701.018 5.79733 702.741 8.336C704.463 10.8747 705.461 13.8893 705.733 17.38H699.409C699.001 13.6627 697.573 10.7613 695.125 8.676C692.677 6.59066 689.481 5.548 685.537 5.548C683.043 5.548 680.845 5.93333 678.941 6.704C677.082 7.47466 675.631 8.58533 674.589 10.036C673.546 11.4413 673.025 13.096 673.025 15C673.025 17.04 673.659 18.6947 674.929 19.964C676.198 21.188 677.943 22.1627 680.165 22.888C682.386 23.568 685.469 24.316 689.413 25.132C689.594 25.1773 689.753 25.2227 689.889 25.268C690.025 25.268 690.161 25.2907 690.297 25.336C690.387 25.3813 690.478 25.404 690.569 25.404C690.659 25.404 690.75 25.4267 690.841 25.472C694.014 26.1067 696.621 26.832 698.661 27.648C700.746 28.4187 702.446 29.5973 703.761 31.184C705.121 32.7253 705.801 34.7653 705.801 37.304C705.801 39.888 705.03 42.1547 703.489 44.104C701.993 46.008 699.839 47.4813 697.029 48.524C694.263 49.5213 691.022 50.02 687.305 50.02ZM717.147 49V1.4H746.183V6.84H723.199V24.52H739.723V25.88H723.199V43.56H748.835V49H717.147Z" fill="white"/>
</svg>
