<svg width="777" height="180" viewBox="0 0 777 180" fill="none" xmlns="http://www.w3.org/2000/svg">
<path d="M9.044 70V16.8H26.144C32.4773 16.8 37.4427 18.168 41.04 20.904C44.688 23.5893 46.512 27.288 46.512 32C46.512 35.8507 45.3213 39.0427 42.94 41.576C40.5587 44.1093 37.24 45.756 32.984 46.516L51.376 70H43.548L25.612 47.124C25.3587 47.1747 25.08 47.2 24.776 47.2C24.5227 47.2 24.2693 47.2 24.016 47.2H15.808V70H9.044ZM25.46 45.68C29.868 45.68 33.3387 44.6667 35.872 42.64C38.4053 40.5627 39.672 37.776 39.672 34.28C39.672 30.7333 38.4053 27.9467 35.872 25.92C33.3387 23.8933 29.868 22.88 25.46 22.88H15.808V45.68H25.46ZM61.962 70V16.8H94.414V22.88H68.726V42.64H87.194V44.16H68.726V63.92H97.378V70H61.962ZM127.246 71.14C122.686 71.14 118.658 70.3547 115.162 68.784C111.666 67.1627 108.879 64.8827 106.802 61.944C104.775 59.0053 103.585 55.6107 103.23 51.76H109.994C110.399 54.5467 111.311 56.9533 112.73 58.98C114.149 61.0067 116.049 62.6027 118.43 63.768C120.862 64.8827 123.674 65.44 126.866 65.44C131.426 65.44 134.973 64.5533 137.506 62.78C140.039 60.956 141.306 58.3973 141.306 55.104C141.306 52.7227 140.571 50.7973 139.102 49.328C137.683 47.808 135.758 46.6427 133.326 45.832C130.945 45.0213 127.854 44.2613 124.054 43.552H123.978C119.975 42.792 116.631 41.9307 113.946 40.968C111.311 40.0053 109.183 38.6373 107.562 36.864C105.941 35.0907 105.13 32.7853 105.13 29.948C105.13 27.06 105.966 24.552 107.638 22.424C109.361 20.2453 111.717 18.5733 114.706 17.408C117.746 16.2427 121.191 15.66 125.042 15.66C129.45 15.66 133.301 16.4453 136.594 18.016C139.938 19.536 142.573 21.7147 144.498 24.552C146.423 27.3893 147.538 30.7587 147.842 34.66H140.774C140.318 30.5053 138.722 27.2627 135.986 24.932C133.25 22.6013 129.678 21.436 125.27 21.436C122.483 21.436 120.026 21.8667 117.898 22.728C115.821 23.5893 114.199 24.8307 113.034 26.452C111.869 28.0227 111.286 29.872 111.286 32C111.286 34.28 111.995 36.1293 113.414 37.548C114.833 38.916 116.783 40.0053 119.266 40.816C121.749 41.576 125.194 42.412 129.602 43.324C129.805 43.3747 129.982 43.4253 130.134 43.476C130.286 43.476 130.438 43.5013 130.59 43.552C130.691 43.6027 130.793 43.628 130.894 43.628C130.995 43.628 131.097 43.6533 131.198 43.704C134.745 44.4133 137.658 45.224 139.938 46.136C142.269 46.9973 144.169 48.3147 145.638 50.088C147.158 51.8107 147.918 54.0907 147.918 56.928C147.918 59.816 147.057 62.3493 145.334 64.528C143.662 66.656 141.255 68.3027 138.114 69.468C135.023 70.5827 131.401 71.14 127.246 71.14ZM183.703 71.14C178.484 71.14 173.772 69.9493 169.567 67.568C165.361 65.136 162.043 61.8173 159.611 57.612C157.229 53.356 156.039 48.6187 156.039 43.4C156.039 38.1813 157.229 33.4693 159.611 29.264C162.043 25.008 165.361 21.6893 169.567 19.308C173.772 16.876 178.484 15.66 183.703 15.66C188.921 15.66 193.633 16.876 197.839 19.308C202.044 21.6893 205.337 25.008 207.719 29.264C210.1 33.4693 211.291 38.1813 211.291 43.4C211.291 48.6187 210.1 53.356 207.719 57.612C205.337 61.8173 202.044 65.136 197.839 67.568C193.633 69.9493 188.921 71.14 183.703 71.14ZM183.703 64.376C187.604 64.376 191.125 63.4893 194.267 61.716C197.408 59.892 199.865 57.384 201.639 54.192C203.463 50.9493 204.375 47.352 204.375 43.4C204.375 39.448 203.463 35.876 201.639 32.684C199.865 29.4413 197.408 26.908 194.267 25.084C191.125 23.26 187.604 22.348 183.703 22.348C179.801 22.348 176.28 23.26 173.139 25.084C169.997 26.908 167.54 29.4413 165.767 32.684C163.993 35.876 163.107 39.448 163.107 43.4C163.107 47.352 163.993 50.9493 165.767 54.192C167.54 57.384 169.997 59.892 173.139 61.716C176.28 63.4893 179.801 64.376 183.703 64.376ZM224.353 70V16.8H241.453C247.786 16.8 252.751 18.168 256.349 20.904C259.997 23.5893 261.821 27.288 261.821 32C261.821 35.8507 260.63 39.0427 258.249 41.576C255.867 44.1093 252.549 45.756 248.293 46.516L266.685 70H258.857L240.921 47.124C240.667 47.1747 240.389 47.2 240.085 47.2C239.831 47.2 239.578 47.2 239.325 47.2H231.117V70H224.353ZM240.769 45.68C245.177 45.68 248.647 44.6667 251.181 42.64C253.714 40.5627 254.981 37.776 254.981 34.28C254.981 30.7333 253.714 27.9467 251.181 25.92C248.647 23.8933 245.177 22.88 240.769 22.88H231.117V45.68H240.769ZM288.494 70V23.412H267.898V16.8H315.854V23.412H295.334V70H288.494Z" fill="white"/>
<path d="M193.18 169V149.24L170.38 115.8H178.436L196.828 142.856L214.992 115.8H222.744L200.02 149.24V169H193.18ZM252.097 170.14C246.879 170.14 242.167 168.949 237.961 166.568C233.756 164.136 230.437 160.817 228.005 156.612C225.624 152.356 224.433 147.619 224.433 142.4C224.433 137.181 225.624 132.469 228.005 128.264C230.437 124.008 233.756 120.689 237.961 118.308C242.167 115.876 246.879 114.66 252.097 114.66C257.316 114.66 262.028 115.876 266.233 118.308C270.439 120.689 273.732 124.008 276.113 128.264C278.495 132.469 279.685 137.181 279.685 142.4C279.685 147.619 278.495 152.356 276.113 156.612C273.732 160.817 270.439 164.136 266.233 166.568C262.028 168.949 257.316 170.14 252.097 170.14ZM252.097 163.376C255.999 163.376 259.52 162.489 262.661 160.716C265.803 158.892 268.26 156.384 270.033 153.192C271.857 149.949 272.769 146.352 272.769 142.4C272.769 138.448 271.857 134.876 270.033 131.684C268.26 128.441 265.803 125.908 262.661 124.084C259.52 122.26 255.999 121.348 252.097 121.348C248.196 121.348 244.675 122.26 241.533 124.084C238.392 125.908 235.935 128.441 234.161 131.684C232.388 134.876 231.501 138.448 231.501 142.4C231.501 146.352 232.388 149.949 234.161 153.192C235.935 156.384 238.392 158.892 241.533 160.716C244.675 162.489 248.196 163.376 252.097 163.376ZM315.307 170.14C310.645 170.14 306.567 169.152 303.071 167.176C299.575 165.2 296.839 162.413 294.863 158.816C292.937 155.168 291.975 150.912 291.975 146.048V115.8H298.891V145.744C298.891 149.392 299.549 152.559 300.867 155.244C302.184 157.879 304.084 159.931 306.567 161.4C309.049 162.819 311.963 163.528 315.307 163.528C318.752 163.528 321.691 162.819 324.123 161.4C326.605 159.931 328.505 157.879 329.823 155.244C331.14 152.559 331.799 149.392 331.799 145.744V115.8H338.639V146.048C338.639 150.912 337.676 155.168 335.751 158.816C333.876 162.413 331.165 165.2 327.619 167.176C324.123 169.152 320.019 170.14 315.307 170.14ZM355.462 169V115.8H372.562C378.895 115.8 383.861 117.168 387.458 119.904C391.106 122.589 392.93 126.288 392.93 131C392.93 134.851 391.739 138.043 389.358 140.576C386.977 143.109 383.658 144.756 379.402 145.516L397.794 169H389.966L372.03 146.124C371.777 146.175 371.498 146.2 371.194 146.2C370.941 146.2 370.687 146.2 370.434 146.2H362.226V169H355.462ZM371.878 144.68C376.286 144.68 379.757 143.667 382.29 141.64C384.823 139.563 386.09 136.776 386.09 133.28C386.09 129.733 384.823 126.947 382.29 124.92C379.757 122.893 376.286 121.88 371.878 121.88H362.226V144.68H371.878ZM427.38 169V115.8H434.22V141.64H464.772V115.8H471.612V169H464.772V143.16H434.22V169H427.38ZM512.308 170.14C507.089 170.14 502.377 168.949 498.172 166.568C493.967 164.136 490.648 160.817 488.216 156.612C485.835 152.356 484.644 147.619 484.644 142.4C484.644 137.181 485.835 132.469 488.216 128.264C490.648 124.008 493.967 120.689 498.172 118.308C502.377 115.876 507.089 114.66 512.308 114.66C517.527 114.66 522.239 115.876 526.444 118.308C530.649 120.689 533.943 124.008 536.324 128.264C538.705 132.469 539.896 137.181 539.896 142.4C539.896 147.619 538.705 152.356 536.324 156.612C533.943 160.817 530.649 164.136 526.444 166.568C522.239 168.949 517.527 170.14 512.308 170.14ZM512.308 163.376C516.209 163.376 519.731 162.489 522.872 160.716C526.013 158.892 528.471 156.384 530.244 153.192C532.068 149.949 532.98 146.352 532.98 142.4C532.98 138.448 532.068 134.876 530.244 131.684C528.471 128.441 526.013 125.908 522.872 124.084C519.731 122.26 516.209 121.348 512.308 121.348C508.407 121.348 504.885 122.26 501.744 124.084C498.603 125.908 496.145 128.441 494.372 131.684C492.599 134.876 491.712 138.448 491.712 142.4C491.712 146.352 492.599 149.949 494.372 153.192C496.145 156.384 498.603 158.892 501.744 160.716C504.885 162.489 508.407 163.376 512.308 163.376ZM552.958 169V115.8H559.798V162.388H587.842V169H552.958ZM599.642 169V115.8H606.482V169H599.642ZM624.579 169V115.8H640.919C646.543 115.8 651.508 116.915 655.815 119.144C660.172 121.373 663.542 124.515 665.923 128.568C668.355 132.571 669.571 137.181 669.571 142.4C669.571 147.619 668.355 152.255 665.923 156.308C663.542 160.311 660.172 163.427 655.815 165.656C651.508 167.885 646.543 169 640.919 169H624.579ZM640.919 162.768C645.226 162.768 649 161.932 652.243 160.26C655.486 158.537 657.994 156.156 659.767 153.116C661.591 150.025 662.503 146.453 662.503 142.4C662.503 138.347 661.591 134.8 659.767 131.76C657.994 128.669 655.486 126.288 652.243 124.616C649 122.893 645.226 122.032 640.919 122.032H631.419V162.768H640.919ZM674.272 169L695.856 115.8H704.748L726.332 169H719.112L712.424 152.584H688.028L681.34 169H674.272ZM688.636 151.14H711.816L700.264 122.944L688.636 151.14ZM746.407 169V149.24L723.607 115.8H731.663L750.055 142.856L768.219 115.8H775.971L753.247 149.24V169H746.407Z" fill="white"/>
<line x1="10" y1="137" x2="164" y2="137" stroke="white" stroke-width="2"/>
</svg>
