<svg width="23" height="22" viewBox="0 0 23 22" fill="none" xmlns="http://www.w3.org/2000/svg">
<path d="M10.6761 3.16519C10.8874 2.73717 10.993 2.52315 11.1364 2.45478C11.2612 2.39528 11.4062 2.39528 11.5309 2.45478C11.6743 2.52315 11.78 2.73717 11.9913 3.16519L13.9957 7.226C14.0581 7.35236 14.0893 7.41554 14.1349 7.4646C14.1752 7.50803 14.2236 7.54322 14.2774 7.56822C14.3381 7.59646 14.4078 7.60665 14.5472 7.62703L19.0309 8.28238C19.503 8.3514 19.7391 8.3859 19.8484 8.50122C19.9434 8.60156 19.9881 8.73943 19.97 8.87645C19.9492 9.03393 19.7783 9.2004 19.4365 9.53334L16.1933 12.6922C16.0922 12.7907 16.0417 12.8399 16.0091 12.8985C15.9802 12.9504 15.9616 13.0073 15.9545 13.0663C15.9464 13.1328 15.9584 13.2024 15.9822 13.3415L16.7475 17.8033C16.8282 18.2739 16.8685 18.5091 16.7927 18.6488C16.7267 18.7703 16.6094 18.8555 16.4735 18.8807C16.3172 18.9096 16.1059 18.7985 15.6833 18.5763L11.675 16.4683C11.5501 16.4027 11.4877 16.3698 11.4219 16.3569C11.3636 16.3455 11.3037 16.3455 11.2455 16.3569C11.1797 16.3698 11.1172 16.4027 10.9923 16.4683L6.98401 18.5763C6.56141 18.7985 6.35012 18.9096 6.19388 18.8807C6.05795 18.8555 5.94065 18.7703 5.87467 18.6488C5.79883 18.5091 5.83918 18.2739 5.91989 17.8033L6.68514 13.3415C6.70899 13.2024 6.72092 13.1328 6.71285 13.0663C6.70571 13.0073 6.68718 12.9504 6.6583 12.8985C6.62568 12.8399 6.57513 12.7907 6.47403 12.6922L3.23084 9.53334C2.88902 9.2004 2.71811 9.03393 2.69731 8.87645C2.67921 8.73943 2.72392 8.60156 2.81897 8.50122C2.92822 8.3859 3.1643 8.3514 3.63645 8.28238L8.12011 7.62703C8.25955 7.60665 8.32927 7.59646 8.38998 7.56822C8.44374 7.54322 8.49214 7.50803 8.5325 7.4646C8.57807 7.41554 8.60926 7.35236 8.67163 7.226L10.6761 3.16519Z" stroke="#9CA1A2" stroke-width="1.5" stroke-linecap="round" stroke-linejoin="round"/>
</svg>
