<svg width="108" height="108" viewBox="0 0 108 108" fill="none" xmlns="http://www.w3.org/2000/svg">
<rect width="108" height="108" rx="54" fill="url(#paint0_linear_2078_15561)"/>
<rect x="11" y="11" width="86" height="86" rx="43" fill="white"/>
<rect x="11" y="11" width="86" height="86" rx="43" stroke="url(#paint1_linear_2078_15561)" stroke-width="2"/>
<path d="M53.8682 32.7886L48.6466 44.9436H43.4249C42.5582 44.9436 41.7132 45.0086 40.8899 45.182L43.0566 39.982L43.1432 39.787L43.2732 39.4403C43.3382 39.2886 43.3816 39.1586 43.4466 39.0503C45.9599 33.222 48.7766 31.402 53.8682 32.7886Z" fill="url(#paint2_linear_2078_15561)"/>
<path d="M68.5799 45.5286L68.5366 45.507C67.2366 45.1386 65.9149 44.9436 64.5716 44.9436H51.0082L55.8832 33.612L55.9482 33.4603C56.2516 33.5686 56.5766 33.7203 56.9016 33.8286L61.6899 35.8436C64.3549 36.9486 66.2182 38.097 67.3666 39.4836C67.5616 39.7436 67.7349 39.982 67.9082 40.2636C68.1032 40.567 68.2549 40.8703 68.3416 41.1953C68.4282 41.3903 68.4932 41.5636 68.5366 41.7586C68.8616 42.8636 68.8832 44.1203 68.5799 45.5286Z" fill="url(#paint3_linear_2078_15561)"/>
<path d="M55.1249 66.2636H55.6666C56.3166 66.2636 56.8582 65.6786 56.8582 64.9636C56.8582 64.0536 56.5982 63.9236 56.0349 63.707L55.1249 63.382V66.2636Z" fill="url(#paint4_linear_2078_15561)"/>
<path d="M67.6266 48.627C66.6516 48.3453 65.6332 48.1936 64.5716 48.1936H43.4249C41.9516 48.1936 40.5649 48.4753 39.2649 49.0386C35.4949 50.6636 32.8516 54.412 32.8516 58.767V62.992C32.8516 63.512 32.8949 64.0103 32.9599 64.5303C33.4366 71.4203 37.1199 75.1036 44.0099 75.5586C44.5082 75.6236 45.0066 75.667 45.5482 75.667H62.4482C70.4649 75.667 74.6899 71.8536 75.1016 64.2703C75.1232 63.8586 75.1449 63.4253 75.1449 62.992V58.767C75.1449 53.9786 71.9599 49.9486 67.6266 48.627ZM56.7716 61.5836C57.7682 61.9303 59.1116 62.667 59.1116 64.9636C59.1116 66.9353 57.5732 68.517 55.6666 68.517H55.1249V68.9936C55.1249 69.622 54.6266 70.1203 53.9982 70.1203C53.3699 70.1203 52.8716 69.622 52.8716 68.9936V68.517H52.6766C50.5966 68.517 48.8849 66.762 48.8849 64.5953C48.8849 63.967 49.3832 63.4686 50.0116 63.4686C50.6399 63.4686 51.1382 63.967 51.1382 64.5953C51.1382 65.5053 51.8316 66.2636 52.6766 66.2636H52.8716V62.602L51.2249 62.017C50.2282 61.6703 48.8849 60.9336 48.8849 58.637C48.8849 56.6653 50.4232 55.0836 52.3299 55.0836H52.8716V54.607C52.8716 53.9786 53.3699 53.4803 53.9982 53.4803C54.6266 53.4803 55.1249 53.9786 55.1249 54.607V55.0836H55.3199C57.3999 55.0836 59.1116 56.8386 59.1116 59.0053C59.1116 59.6336 58.6132 60.132 57.9849 60.132C57.3566 60.132 56.8582 59.6336 56.8582 59.0053C56.8582 58.0953 56.1649 57.337 55.3199 57.337H55.1249V60.9986L56.7716 61.5836Z" fill="url(#paint5_linear_2078_15561)"/>
<path d="M51.1382 58.637C51.1382 59.547 51.3982 59.677 51.9616 59.8936L52.8716 60.2186V57.337H52.3299C51.6582 57.337 51.1382 57.922 51.1382 58.637Z" fill="url(#paint6_linear_2078_15561)"/>
<defs>
<linearGradient id="paint0_linear_2078_15561" x1="6.3245e-07" y1="53.5046" x2="108" y2="53.5046" gradientUnits="userSpaceOnUse">
<stop stop-color="white"/>
<stop offset="1" stop-color="white" stop-opacity="0"/>
</linearGradient>
<linearGradient id="paint1_linear_2078_15561" x1="98" y1="98" x2="-2.11054" y2="80.9" gradientUnits="userSpaceOnUse">
<stop stop-color="#0066B3"/>
<stop offset="1" stop-color="#38BDC6"/>
</linearGradient>
<linearGradient id="paint2_linear_2078_15561" x1="75.1449" y1="75.6669" x2="26.9672" y2="67.6327" gradientUnits="userSpaceOnUse">
<stop stop-color="#0066B3"/>
<stop offset="1" stop-color="#38BDC6"/>
</linearGradient>
<linearGradient id="paint3_linear_2078_15561" x1="75.1449" y1="75.6669" x2="26.9672" y2="67.6327" gradientUnits="userSpaceOnUse">
<stop stop-color="#0066B3"/>
<stop offset="1" stop-color="#38BDC6"/>
</linearGradient>
<linearGradient id="paint4_linear_2078_15561" x1="75.1449" y1="75.6669" x2="26.9672" y2="67.6327" gradientUnits="userSpaceOnUse">
<stop stop-color="#0066B3"/>
<stop offset="1" stop-color="#38BDC6"/>
</linearGradient>
<linearGradient id="paint5_linear_2078_15561" x1="75.1449" y1="75.6669" x2="26.9672" y2="67.6327" gradientUnits="userSpaceOnUse">
<stop stop-color="#0066B3"/>
<stop offset="1" stop-color="#38BDC6"/>
</linearGradient>
<linearGradient id="paint6_linear_2078_15561" x1="75.1449" y1="75.6669" x2="26.9672" y2="67.6327" gradientUnits="userSpaceOnUse">
<stop stop-color="#0066B3"/>
<stop offset="1" stop-color="#38BDC6"/>
</linearGradient>
</defs>
</svg>
