<svg width="109" height="108" viewBox="0 0 109 108" fill="none" xmlns="http://www.w3.org/2000/svg">
<rect x="0.5" width="108" height="108" rx="54" fill="url(#paint0_linear_2078_15558)"/>
<rect x="11.5" y="11" width="86" height="86" rx="43" fill="white"/>
<rect x="11.5" y="11" width="86" height="86" rx="43" stroke="url(#paint1_linear_2078_15558)" stroke-width="2"/>
<path d="M63.577 32.333H45.4204C37.5337 32.333 32.832 37.0347 32.832 44.9213V63.0563C32.832 70.9647 37.5337 75.6663 45.4204 75.6663H63.5554C71.442 75.6663 76.1437 70.9647 76.1437 63.078V44.9213C76.1654 37.0347 71.4637 32.333 63.577 32.333ZM53.4804 57.3147L45.4204 65.3747H50.1654C51.0537 65.3747 51.7904 66.1113 51.7904 66.9997C51.7904 67.888 51.0537 68.6247 50.1654 68.6247H41.4987C41.282 68.6247 41.0654 68.5813 40.8704 68.4947C40.4804 68.3213 40.1554 68.018 39.982 67.6063C39.917 67.4113 39.8737 67.2163 39.8737 66.9997V58.333C39.8737 57.4447 40.6104 56.708 41.4987 56.708C42.387 56.708 43.1237 57.4447 43.1237 58.333V63.078L51.1837 55.018C51.812 54.3897 52.852 54.3897 53.4804 55.018C54.1087 55.6463 54.1087 56.6863 53.4804 57.3147ZM69.1237 49.6663C69.1237 50.5547 68.387 51.2913 67.4987 51.2913C66.6104 51.2913 65.8737 50.5547 65.8737 49.6663V44.9213L57.8137 52.9813C57.4887 53.3063 57.077 53.458 56.6654 53.458C56.2537 53.458 55.842 53.3063 55.517 52.9813C54.8887 52.353 54.8887 51.313 55.517 50.6847L63.577 42.6247H58.832C57.9437 42.6247 57.207 41.888 57.207 40.9997C57.207 40.1113 57.9437 39.3747 58.832 39.3747H67.4987C67.7154 39.3747 67.9104 39.418 68.127 39.5047C68.517 39.678 68.842 39.9813 69.0154 40.393C69.0804 40.588 69.1237 40.783 69.1237 40.9997V49.6663Z" fill="url(#paint2_linear_2078_15558)"/>
<defs>
<linearGradient id="paint0_linear_2078_15558" x1="0.500001" y1="53.5046" x2="108.5" y2="53.5046" gradientUnits="userSpaceOnUse">
<stop stop-color="white"/>
<stop offset="1" stop-color="white" stop-opacity="0"/>
</linearGradient>
<linearGradient id="paint1_linear_2078_15558" x1="98.5" y1="98" x2="-1.61054" y2="80.9" gradientUnits="userSpaceOnUse">
<stop stop-color="#0066B3"/>
<stop offset="1" stop-color="#38BDC6"/>
</linearGradient>
<linearGradient id="paint2_linear_2078_15558" x1="76.1438" y1="75.6663" x2="26.8701" y2="67.254" gradientUnits="userSpaceOnUse">
<stop stop-color="#0066B3"/>
<stop offset="1" stop-color="#38BDC6"/>
</linearGradient>
</defs>
</svg>
